<svg id="Layer_1" data-name="Layer 1" xmlns="http://www.w3.org/2000/svg" viewBox="0 0 1630.48 853.5"><path d="M106,732.64l4.61-6.09c1,6.72-1.49,12.24-4.61,17.57Z" transform="translate(-106 -82.67)"/><path d="M106,365.3l4.6-6.08c1,6.71-1.48,12.23-4.6,17.56Z" transform="translate(-106 -82.67)"/><path d="M106,549l4.6-6.09c1,6.72-1.48,12.24-4.6,17.57Z" transform="translate(-106 -82.67)"/><path d="M106,181.64l4.6-6.09c1,6.72-1.48,12.24-4.6,17.57Z" transform="translate(-106 -82.67)"/><path d="M106,916.3l4.6-6.09c1,6.72-1.48,12.24-4.6,17.57Z" transform="translate(-106 -82.67)"/><path d="M500.28,649.29l11.79,8.89-1.81,2.09-14.82-12.6,14.48-12.8,1.92,2Z" transform="translate(-106 -82.67)"/><path d="M420.15,637.22l-11.78,9,11.68,12.4-1.85,1.95-14.46-13,14.33-12.69Z" transform="translate(-106 -82.67)"/><path d="M315.91,650l12.71,8.21-2.21,2.36-14.5-12.93,14.33-12.7,2,2.07Z" transform="translate(-106 -82.67)"/><path d="M1643.17,923.14l14.53-12.77,1.91,2-11.43,12.18,11.58,9.26-1.72,1.95Z" transform="translate(-106 -82.67)"/><path d="M1552.06,923.67a44.63,44.63,0,0,1,14.24-12.92l1.53,1.71-12,12.69,12.54,8.36-2.13,2.36Z" transform="translate(-106 -82.67)"/><path d="M1459.53,923.09,1474,910.41l2,2.09-12.27,12.79,12.64,8.32-2.13,2.32Z" transform="translate(-106 -82.67)"/><path d="M1367.73,923.17l14.48-12.8,1.92,2-11.24,12,11.68,9c-.68.76-1.36,1.51-2,2.27Z" transform="translate(-106 -82.67)"/><path d="M1290.4,936.06,1276,923c5.15-4.48,9.81-8.54,14.48-12.59l1.87,2.06-11.69,12.39,11.7,9.23Z" transform="translate(-106 -82.67)"/><path d="M1184.08,923.14l14.52-12.77,1.91,2-11.45,12.2,12,8.85-2.08,2.34Z" transform="translate(-106 -82.67)"/><path d="M1097,924.67l12,8.91-1.9,2.18-14.78-12.59,14.29-12.73,2.28,2.06Z" transform="translate(-106 -82.67)"/><path d="M1000.31,923l14.78-12.55,1.8,2L1005,925l12.46,8.44-2.17,2.39Z" transform="translate(-106 -82.67)"/><path d="M925.07,912.44,915,923.16l-1.71,1.8,12.39,8.5-2.14,2.4L908.6,923.09l14.58-12.72Z" transform="translate(-106 -82.67)"/><path d="M816.81,923.17l14.48-12.8,1.92,2-11.24,12c3.86,3,7.77,6,11.68,9l-2,2.27Z" transform="translate(-106 -82.67)"/><path d="M741.73,913.36,728,924.05l13.17,10.32-1.38,1.56-14-12.17A37.74,37.74,0,0,1,740,910.92Z" transform="translate(-106 -82.67)"/><path d="M633.21,923l14.49-12.56,1.86,2-10.17,10.92,10.27,10.81-1.95,2Z" transform="translate(-106 -82.67)"/><path d="M541.32,923.09l14.59-12.72,1.88,2.07-10.12,10.73L545.94,925l12.42,8.47-2.15,2.4Z" transform="translate(-106 -82.67)"/><path d="M450.19,923.71a45,45,0,0,1,14.28-13l1.53,1.73L454.06,925l11.72,9.23-1.44,1.66C459.79,932,455.23,928.07,450.19,923.71Z" transform="translate(-106 -82.67)"/><path d="M357.7,923.14l14.52-12.77,1.91,2-11.45,12.2,12,8.85-2.07,2.34Z" transform="translate(-106 -82.67)"/><path d="M128.2,96.49l14.48-12.57,1.89,2L134.39,96.79l10.25,10.84-1.92,1.93Z" transform="translate(-106 -82.67)"/><path d="M226.16,647.82l10.26,10.75-1.87,2-14.45-13,14.33-12.69,2,2Z" transform="translate(-106 -82.67)"/><path d="M234.53,109.57l-14.41-13,14.34-12.68,1.91,2c-3.29,3.54-6.59,7.07-10.17,10.91l10.23,10.77Z" transform="translate(-106 -82.67)"/><path d="M142.67,476.88,129,464.52a38.5,38.5,0,0,1,14.17-12.81l1.48,1.59L132.57,466l12.51,8.4Z" transform="translate(-106 -82.67)"/><path d="M311.79,96.61l14.45-12.69,2,2-12,12.8q5.85,4.61,11.69,9.17l-1.37,1.55Z" transform="translate(-106 -82.67)"/><path d="M180.25,372.32l10.26,10.75-1.86,2-14.46-13,14.34-12.7,2,2.05Z" transform="translate(-106 -82.67)"/><path d="M403.62,96.67,418.1,83.88l1.92,2-11.23,12,11.67,9c-.68.76-1.35,1.52-2,2.27Z" transform="translate(-106 -82.67)"/><path d="M1597.25,463.92l14.55-12.67,1.92,2q-5.07,5.36-10.13,10.73l-1.73,1.82,12.43,8.46-2.16,2.41Z" transform="translate(-106 -82.67)"/><path d="M500,98.53l11.72,9.23-1.47,1.65L496.18,97.29a38.71,38.71,0,0,1,14.26-12.91L511.91,86C508.5,89.55,505.1,93.14,500,98.53Z" transform="translate(-106 -82.67)"/><path d="M270.89,373.63,282,383.18l-1.34,1.58-14.8-12.59,14.49-12.8,1.91,2C279,365,275.66,368.5,270.89,373.63Z" transform="translate(-106 -82.67)"/><path d="M591.55,98.71l11.82,9.21L602,109.43,587.32,96.65c5.11-4.53,9.74-8.63,14.36-12.74l2.08,2.1Z" transform="translate(-106 -82.67)"/><path d="M234.55,476.88l-14.45-13,14.34-12.69,1.95,2-10.18,10.87,10.2,10.81Z" transform="translate(-106 -82.67)"/><path d="M693.58,109.57l-14.41-13.1,14.48-12.59L695.53,86,683.84,98.31l11.67,9.27Z" transform="translate(-106 -82.67)"/><path d="M374,361.42l-11.34,9.45,11.52,12.23-1.85,1.95-14.46-13,14.33-12.7Z" transform="translate(-106 -82.67)"/><path d="M770.9,96.67l14.48-12.79,1.91,2-11.18,12,11.48,9.24-1.9,2.12Z" transform="translate(-106 -82.67)"/><path d="M970.69,453.31l-12.63,11.22,13.33,9.82-2,2.26c-4.66-3.95-9.31-7.91-14.85-12.62L969,451.21Z" transform="translate(-106 -82.67)"/><path d="M877.25,109.58l-14.39-13L877.2,83.87l1.91,2L868,97.86,879.53,107Z" transform="translate(-106 -82.67)"/><path d="M450.22,372.68a44.93,44.93,0,0,1,14.24-12.94l1.53,1.72L454.12,374l11.73,9.22c-.5.55-1,1.11-1.49,1.67Z" transform="translate(-106 -82.67)"/><path d="M969,109.56l-14.4-13.09,14.5-12.6L971,86,959.06,98.57,971.54,107Z" transform="translate(-106 -82.67)"/><path d="M326.33,476.91l-14.39-13,14.35-12.68,1.91,2-11.23,12,11.54,9.2Z" transform="translate(-106 -82.67)"/><path d="M1063.33,86.56l-12.22,8.76-.36,3.56,11.69,9.07-1.36,1.48-14.66-12.78,14.36-12.74Z" transform="translate(-106 -82.67)"/><path d="M541.34,372.14l14.53-12.78,1.9,2.06-11.45,12.2,12,8.85-2.08,2.34Z" transform="translate(-106 -82.67)"/><path d="M1142.89,98.17l12,8.92-1.9,2.17-14.78-12.58c5.14-4.58,9.71-8.66,14.29-12.73l2.28,2Z" transform="translate(-106 -82.67)"/><path d="M1321.86,463.8l14.49-12.55,1.86,2L1328,464.14,1338.31,475l-2,2Z" transform="translate(-106 -82.67)"/><path d="M1246.58,86.39,1233.36,96.5l13.47,10.5-2,2.27L1230,96.67l14.49-12.8Z" transform="translate(-106 -82.67)"/><path d="M647.65,385.06l-14.32-13,14.26-12.64,2.09,2.1-12.2,12.66,11.81,9.22Z" transform="translate(-106 -82.67)"/><path d="M1326.24,98.67l12.52,8.36-2.15,2.38-14-12c3.72-6.08,8.74-9.78,14-13.11l1.58,1.71Z" transform="translate(-106 -82.67)"/><path d="M420.09,453.3l-12,12.58,11.73,9.24-1.44,1.64-14-12.08c3.74-6.07,8.75-9.77,14.06-13.1Z" transform="translate(-106 -82.67)"/><path d="M1418.2,98.52l12.45,8.44-2.16,2.41-14.88-12.79,14.6-12.7,1.87,2.06L1420,96.68C1419.37,97.29,1418.79,97.91,1418.2,98.52Z" transform="translate(-106 -82.67)"/><path d="M725.57,372.64c4.46-5.55,8.67-10.18,14.54-12.66l1.35,1.49L729.4,374.16l12.52,8.38c-.7.8-1.41,1.59-2.12,2.38C735.25,381,730.69,377.07,725.57,372.64Z" transform="translate(-106 -82.67)"/><path d="M1505.44,96.62,1520,83.87l1.89,2.06-11.51,12.25,11.61,9.25c-.55.64-1.11,1.27-1.67,1.9Z" transform="translate(-106 -82.67)"/><path d="M1060.49,476.58l-14-12.71,14.26-12.64c.67.7,1.35,1.39,2,2.09l-10.33,10.83,10.44,10.75Z" transform="translate(-106 -82.67)"/><path d="M1611.78,109.55l-13.69-12.37a38.58,38.58,0,0,1,14.18-12.8l1.48,1.59c-3.41,3.58-6.82,7.17-11.92,12.55l11.69,9.26Z" transform="translate(-106 -82.67)"/><path d="M831.26,385l-14.3-13,14.29-12.66,2,2-12.25,13,12.65,8.2Z" transform="translate(-106 -82.67)"/><path d="M1693.93,98.25l11.36,9.51c-.44.53-.89,1-1.34,1.58l-14.87-12.72,14.56-12.76,1.89,2.07Z" transform="translate(-106 -82.67)"/><path d="M510,476.88l-13.62-12.29c3.66-6,8.68-9.68,14-13l1.59,1.72L499.85,466l12.51,8.4Z" transform="translate(-106 -82.67)"/><path d="M270.64,924.85c4.19,3.17,8,6.07,11.83,9l-1.73,2-14.86-12.69,14.53-12.77,1.9,2.06Z" transform="translate(-106 -82.67)"/><path d="M174.06,923.1l14.46-12.69,2.06,2.11-12.25,12.71L191,933.59l-2.12,2.34Z" transform="translate(-106 -82.67)"/><path d="M1706.1,821.23l-12.44,8.55-.16,3.73,11.69,9.09-1.36,1.5-14.67-12.78,14.36-12.74Z" transform="translate(-106 -82.67)"/><path d="M1601.84,833.19l12.45,8.44-2.16,2.4-14.88-12.78,14.6-12.71,1.87,2.07q-5.07,5.37-10.13,10.73Z" transform="translate(-106 -82.67)"/><path d="M1522,821.05l-13.25,10.29,13.63,10.26c-.69.78-1.39,1.56-2.08,2.35l-14.85-12.63,14.5-12.78Z" transform="translate(-106 -82.67)"/><path d="M1418.12,833.22l12.33,8.6c-.67.76-1.35,1.52-2,2.27l-14-12.08c3.75-6.08,8.75-9.79,14.07-13.1l1.59,1.74Z" transform="translate(-106 -82.67)"/><path d="M1336.32,844.26l-14.39-13.09,14.42-12.64c.63.69,1.26,1.38,1.9,2.06L1326.57,833l12.23,8.61Z" transform="translate(-106 -82.67)"/><path d="M1234.84,833l11.79,8.88-1.81,2.1L1230,831.33l14.49-12.8,1.91,2Z" transform="translate(-106 -82.67)"/><path d="M1154.64,820.62l-12,12.68,12.53,8.37L1153,844l-14.86-12.82,14.63-12.68Z" transform="translate(-106 -82.67)"/><path d="M1062.61,820.74,1050,831.63l13.25,10L1061.2,844l-14.85-12.63,14.5-12.78Z" transform="translate(-106 -82.67)"/><path d="M971.07,820.89l-11.78,9L971,842.27l-1.86,2-14.45-13c5.08-4.5,9.7-8.6,14.33-12.69Z" transform="translate(-106 -82.67)"/><path d="M923.13,385c-4.43-4-8.85-8-13.68-12.36a38.47,38.47,0,0,1,14.17-12.8l1.48,1.59L913,374.16l12.51,8.4C924.74,383.38,923.93,384.21,923.13,385Z" transform="translate(-106 -82.67)"/><path d="M879.73,821.24l-12.48,8.5-.16,3.79,12.5,8.24-2.13,2.33-14.68-12.78,14.36-12.74Z" transform="translate(-106 -82.67)"/><path d="M787.45,821.05l-13.26,10.29,13.63,10.26-2.08,2.34-14.85-12.61,14.5-12.79C786.08,819.37,786.77,820.21,787.45,821.05Z" transform="translate(-106 -82.67)"/><path d="M679.11,831.17l14.47-12.59c.64.67,1.28,1.35,1.93,2l-10.2,10.83,10.2,10.84c-.62.64-1.23,1.29-1.85,1.94Z" transform="translate(-106 -82.67)"/><path d="M591.37,833.63l12.71,8.2-2.21,2.37-14.5-12.94,14.33-12.7c.68.69,1.35,1.39,2,2.08Z" transform="translate(-106 -82.67)"/><path d="M509.57,843.91,495.62,831.2l14.26-12.63,2,2.08-10.33,10.83L512,842.23Z" transform="translate(-106 -82.67)"/><path d="M403.61,831.3l14.53-12.77,1.9,2.06-11.5,12.24,12,8.83L418.47,844Z" transform="translate(-106 -82.67)"/><path d="M1521.89,453.27,1511.78,464l-1.71,1.8,12.39,8.5c-.72.79-1.43,1.59-2.15,2.39l-14.88-12.76L1520,451.2Z" transform="translate(-106 -82.67)"/><path d="M188.64,201.38c-4.51-4-9-8.1-14.44-13l14.33-12.69,1.95,2L180.3,188.62l10.2,10.81Z" transform="translate(-106 -82.67)"/><path d="M1016.88,361.43l-11.7,12.43,12.25,8.6-2.13,2.38-14.87-12.72L1015,359.37Z" transform="translate(-106 -82.67)"/><path d="M265.93,188.3l14.49-12.55,1.86,2-10.17,10.91q5.08,5.37,10.23,10.77l-1.9,2Z" transform="translate(-106 -82.67)"/><path d="M1689.1,464l14.48-12.79,1.91,2-11.21,12,11.65,9.07-2,2.26Z" transform="translate(-106 -82.67)"/><path d="M374.2,177.82c-3.43,3.58-6.85,7.17-12.14,12.71l12.55,8.39-2.12,2.34-14-12.09c3.76-6.06,8.75-9.79,14.08-13.09Z" transform="translate(-106 -82.67)"/><path d="M1092.27,372.17l14.48-12.79,1.92,2-11.25,12.06,11.53,9.2-1.86,2.11Z" transform="translate(-106 -82.67)"/><path d="M466.14,178.2l-11.82,8.94L466,199.41l-1.91,2-14.4-13L464,175.71Z" transform="translate(-106 -82.67)"/><path d="M591.49,466.11l12.64,8.33L602,476.76,587.32,464l14.36-12.74c.7.69,1.39,1.39,2.08,2.09C600.32,456.92,596.89,460.5,591.49,466.11Z" transform="translate(-106 -82.67)"/><path d="M542,189a44.77,44.77,0,0,1,14.24-12.93l1.53,1.72-12,12.69,12.53,8.36-2.13,2.36Z" transform="translate(-106 -82.67)"/><path d="M1198.22,384.75l-14-12.71,14.26-12.64,2,2.08-10.33,10.83,10.44,10.76Z" transform="translate(-106 -82.67)"/><path d="M649.6,177.76l-11.69,12.43,12.24,8.6L648,201.17l-14.87-12.72,14.57-12.76Z" transform="translate(-106 -82.67)"/><path d="M1138.21,463.84l14.48-12.6c.64.67,1.28,1.35,1.91,2l-10.19,10.83,10.2,10.83-1.84,2Z" transform="translate(-106 -82.67)"/><path d="M739.49,201.42l-14.38-13.06,14.38-12.66,1.91,2.05L730,189.88l11.51,9.29Z" transform="translate(-106 -82.67)"/><path d="M1292.9,362.07l-12.39,8.59-.21,3.72,11.68,9.08-1.35,1.47L1276,372.15l14.36-12.74C1291.19,360.3,1292,361.19,1292.9,362.07Z" transform="translate(-106 -82.67)"/><path d="M833.42,178.2l-11.83,8.94,11.71,12.31-1.95,2-14.4-13,14.33-12.68Z" transform="translate(-106 -82.67)"/><path d="M683.79,465.51l12,8.91-1.9,2.17L679.09,464l14.29-12.73,2.29,2.06Z" transform="translate(-106 -82.67)"/><path d="M908.62,188.48l14.52-12.78,1.91,2.05L913.6,190l12,8.85-2.08,2.34Z" transform="translate(-106 -82.67)"/><path d="M1367.71,372.11l14.46-12.69,2,2-12,12.87,12.51,8.31-2.13,2.34Z" transform="translate(-106 -82.67)"/><path d="M1015,201.41l-14.39-13,14.36-12.68,1.91,2-11.21,12,11.64,9.09Z" transform="translate(-106 -82.67)"/><path d="M1418.39,465.68l11.83,9-1.73,2L1413.62,464l14.54-12.76,1.9,2.06Z" transform="translate(-106 -82.67)"/><path d="M1092.3,188.32l14.48-12.57,1.9,2-10.18,10.87,10.2,10.81-1.87,2C1102.32,197.34,1097.81,193.27,1092.3,188.32Z" transform="translate(-106 -82.67)"/><path d="M1474,385.08,1459.66,372l14.42-12.63,1.9,2.06-11.68,12.42,12.23,8.6Z" transform="translate(-106 -82.67)"/><path d="M1184.12,188.32l14.48-12.57,1.9,2-10.18,10.87,10.2,10.81-1.87,2Z" transform="translate(-106 -82.67)"/><path d="M787.05,453.31l-12.63,11.22,13.33,9.82-2,2.26c-4.66-3.95-9.31-7.91-14.85-12.62l14.5-12.78Z" transform="translate(-106 -82.67)"/><path d="M1280.75,190.13l11.83,8.82-1.87,2.14-14.8-12.59,14.48-12.79,1.91,2Z" transform="translate(-106 -82.67)"/><path d="M1551.35,372.11l14.46-12.69,2,2-12,12.87,12.51,8.31-2.14,2.33Z" transform="translate(-106 -82.67)"/><path d="M1372.14,190.49l12.52,8.38c-.71.79-1.42,1.59-2.14,2.38-4.54-3.93-9.09-7.85-14-12.13a38.65,38.65,0,0,1,14.25-12.9l1.48,1.58Z" transform="translate(-106 -82.67)"/><path d="M1234.23,466.11l12.64,8.33-2.18,2.28L1230.05,464l14.37-12.74,2.08,2.09Z" transform="translate(-106 -82.67)"/><path d="M1476,177.76c-3.36,3.57-6.72,7.15-11.7,12.43l12.25,8.6-2.13,2.38-14.87-12.72,14.56-12.76Z" transform="translate(-106 -82.67)"/><path d="M1643.16,372.09l14.6-12.72,1.87,2.07-10.13,10.73-1.73,1.83,12.43,8.46-2.16,2.4Z" transform="translate(-106 -82.67)"/><path d="M1551.35,188.47l14.53-12.77,1.9,2.05L1556.34,190l12,8.86-2.08,2.34Z" transform="translate(-106 -82.67)"/><path d="M879.14,453.27l-11.55,12.29,12.06,8.77c-.7.77-1.39,1.55-2.08,2.33L862.7,464l14.54-12.76Z" transform="translate(-106 -82.67)"/><path d="M1648.17,190l11.19,9.5-1.43,1.57-14.74-12.55,14.48-12.79,1.91,2Z" transform="translate(-106 -82.67)"/><path d="M132.57,649.66,145.1,658,143,660.41l-14-12.12a38.52,38.52,0,0,1,14.25-12.91l1.47,1.59Z" transform="translate(-106 -82.67)"/><path d="M326.25,844.2l-14.3-13,14.29-12.67,2,2.08L318,831.42l10.23,10.84Z" transform="translate(-106 -82.67)"/><path d="M224.47,833.22l12.33,8.6-2,2.27-14.05-12.16A37.8,37.8,0,0,1,235,819.09l1.45,1.56C233,824.23,229.62,827.82,224.47,833.22Z" transform="translate(-106 -82.67)"/><path d="M142.65,844.25l-14.38-13.08,14.42-12.64,1.9,2.06L132.91,833l12.23,8.61Z" transform="translate(-106 -82.67)"/><path d="M1643.21,739.37l14.46-12.62,2,2.07-10.27,10.76,10.22,10.85-1.8,1.93Z" transform="translate(-106 -82.67)"/><path d="M1565.87,752.38l-13.61-12.3c3.66-6,8.67-9.67,14-13l1.59,1.72-12.06,12.69,12.51,8.4Z" transform="translate(-106 -82.67)"/><path d="M1476,728.82l-12.14,12.7,12.54,8.39-2.13,2.34-14-12.15a37.69,37.69,0,0,1,14.32-12.84Z" transform="translate(-106 -82.67)"/><path d="M1367.72,739.42l14.47-12.68,2,2.09L1372,741.62l12.65,8.32-2.14,2.32Z" transform="translate(-106 -82.67)"/><path d="M1292.35,728.77l-10.12,10.73-1.71,1.8,12.39,8.49-2.14,2.4-14.89-12.76,14.58-12.72Z" transform="translate(-106 -82.67)"/><path d="M1198.59,752.42l-14.38-13.06,14.39-12.67,1.9,2.06-11.38,12.14,11.55,9.26Z" transform="translate(-106 -82.67)"/><path d="M1092.3,739.32l14.48-12.57,1.9,2-10.18,10.88,10.2,10.81-1.87,2C1102.32,748.33,1097.81,744.27,1092.3,739.32Z" transform="translate(-106 -82.67)"/><path d="M1017.19,729.69l-11.48,8.93c-.29,1-.57,2-.85,3l12.48,8.32-2.12,2.34-14-12.17a37.82,37.82,0,0,1,14.31-12.84Z" transform="translate(-106 -82.67)"/><path d="M925.12,728.82,913,741.52l12.54,8.39-2.18,2.29-13.89-12c3.76-6.07,8.75-9.79,14.08-13.09Z" transform="translate(-106 -82.67)"/><path d="M816.81,739.5l14.48-12.79,1.92,2-11.24,12,11.68,9.06-2,2.26Z" transform="translate(-106 -82.67)"/><path d="M729.77,741.17l11.8,8.94-1.73,2L725,739.49l14.52-12.8c.63.69,1.27,1.37,1.9,2Z" transform="translate(-106 -82.67)"/><path d="M649.72,729.22l-13.26,10.29,13.63,10.26L648,752.11l-14.85-12.62,14.5-12.79Z" transform="translate(-106 -82.67)"/><path d="M541.35,739.5l14.48-12.79,1.91,2-11.18,12L558.05,750l-1.91,2.13Z" transform="translate(-106 -82.67)"/><path d="M466.08,729.22l-13.26,10.29,13.63,10.26-2.08,2.34-14.85-12.62L464,726.7Z" transform="translate(-106 -82.67)"/><path d="M357.71,739.5l14.48-12.79,1.92,2-11.23,12,11.67,9.06-2,2.26Z" transform="translate(-106 -82.67)"/><path d="M128.14,280.29l14.56-12.76,1.89,2.07-11.52,12.24,11.62,9.26L143,293Z" transform="translate(-106 -82.67)"/><path d="M1657.68,568.73l-14.4-13.09L1657.77,543l1.86,2.08L1648,557.48l11.67,9.27Z" transform="translate(-106 -82.67)"/><path d="M234.11,292.91l-14-12.71,14.26-12.63,2,2.08-10.33,10.83,10.44,10.76Z" transform="translate(-106 -82.67)"/><path d="M1551.23,555.65,1566,543.09l1.8,2-11.68,12.37,11.69,9.25-1.6,1.8Z" transform="translate(-106 -82.67)"/><path d="M316.64,282l11.79,8.89-1.81,2.09L311.8,280.33c5.22-4.6,9.86-8.7,14.49-12.8l1.91,2Z" transform="translate(-106 -82.67)"/><path d="M1464.21,557.58l11.72,9.22-1.54,1.74-14.87-12.81c5.28-4.59,10-8.63,14.62-12.68l1.86,2.07Z" transform="translate(-106 -82.67)"/><path d="M420.05,269.6c-3.36,3.57-6.72,7.13-11.51,12.23l11.57,9.31L418.47,293,403.6,280.29l14.55-12.75Z" transform="translate(-106 -82.67)"/><path d="M265.88,739.47l14.53-12.77,1.9,2c-3.35,3.57-6.69,7.14-11.5,12.25l12,8.82-2.07,2.33Z" transform="translate(-106 -82.67)"/><path d="M512.44,270.23l-12.31,8.68-.28,3.6,11.69,9.09-1.41,1.46L495.5,280.32l14.36-12.74Z" transform="translate(-106 -82.67)"/><path d="M1373.92,556l10.24,10.75-1.86,2-14.44-13,14.32-12.69,2,2Z" transform="translate(-106 -82.67)"/><path d="M587.3,280.14l14.49-12.56,1.86,2-10.17,10.92,10.23,10.77-1.91,2Z" transform="translate(-106 -82.67)"/><path d="M1280.62,557.34l12,8.91-1.9,2.18-14.78-12.59,14.29-12.73,2.28,2.06Z" transform="translate(-106 -82.67)"/><path d="M679.66,280.81c4.46-5.56,8.67-10.18,14.54-12.67l1.35,1.5-12.06,12.69L696,290.71l-2.12,2.38Z" transform="translate(-106 -82.67)"/><path d="M1188.51,557.83,1201,566.2l-2.15,2.38-14.05-12.12a39.2,39.2,0,0,1,14.22-12.94l1.49,1.61Z" transform="translate(-106 -82.67)"/><path d="M787.39,269.65l-12.14,12.71,12.54,8.39L785.61,293l-13.89-12c3.76-6.06,8.75-9.79,14.08-13.09Z" transform="translate(-106 -82.67)"/><path d="M1092.26,555.81,1106.78,543l1.91,2.06-11.45,12.19,12,8.86-2.08,2.34Z" transform="translate(-106 -82.67)"/><path d="M862.7,280.27c5.29-4.63,9.87-8.66,14.46-12.69l2,2-12,12.86,12.51,8.32-2.14,2.33Z" transform="translate(-106 -82.67)"/><path d="M1016.59,545.12,1004,556.37l13.32,9.8-2,2.27-14.85-12.61,14.5-12.79Z" transform="translate(-106 -82.67)"/><path d="M958.82,282.38l11.83,9.2c-.45.51-.91,1-1.37,1.52L954.6,280.32,969,267.58l2.08,2.1C967.6,273.25,964.17,276.83,958.82,282.38Z" transform="translate(-106 -82.67)"/><path d="M908.62,555.76l14.47-12.68,2,2.09L912.85,558l12.65,8.32-2.14,2.31Z" transform="translate(-106 -82.67)"/><path d="M1046.4,280.14l14.49-12.56,1.86,2-10.17,10.92,10.23,10.77-1.91,2Z" transform="translate(-106 -82.67)"/><path d="M833.3,545.15l-12.14,12.71c4.23,2.82,8.38,5.61,12.54,8.39-.7.78-1.41,1.56-2.11,2.35l-14-12.1c3.76-6.06,8.75-9.79,14.08-13.09Z" transform="translate(-106 -82.67)"/><path d="M1154.7,269.87l-11.78,9,11.72,12.45c-.63.63-1.25,1.27-1.88,1.91l-14.46-13,14.33-12.69Z" transform="translate(-106 -82.67)"/><path d="M739.45,568.71l-14.31-13,14.29-12.66,2,2-12.25,13,12.65,8.2Z" transform="translate(-106 -82.67)"/><path d="M1234.72,282l11.91,8.92-1.78,2L1230,280.28l14.55-12.74c.64.68,1.27,1.37,1.9,2.06Z" transform="translate(-106 -82.67)"/><path d="M633.16,555.81,647.68,543l1.91,2.06-11.43,12.17,11.57,9.26-1.71,2Z" transform="translate(-106 -82.67)"/><path d="M1326.38,282.19l12.45,8.44-2.15,2.4c-4.7-4-9.39-8-14.89-12.78l14.6-12.71,1.87,2.07-10.13,10.74Z" transform="translate(-106 -82.67)"/><path d="M558.31,545.73l-12.14,8.83-.45,3.55,11.7,9-1.5,1.64-14.33-12.9,14.17-12.77Z" transform="translate(-106 -82.67)"/><path d="M1418.36,282l11.91,8.93-1.78,2-14.87-12.73,14.57-12.75,1.88,2.07Z" transform="translate(-106 -82.67)"/><path d="M466.5,545.74l-12.16,8.82c-.15,1.18-.29,2.37-.44,3.55l11.66,9.06-1.46,1.6-14.33-12.9,14.17-12.77Z" transform="translate(-106 -82.67)"/><path d="M1520,293.25l-14.38-13.06L1520,267.53l1.91,2.06-11.46,12.2,12,8.86Z" transform="translate(-106 -82.67)"/><path d="M372.17,568.71l-14.31-13,14.29-12.66,2,2-12.25,13,12.65,8.2Z" transform="translate(-106 -82.67)"/><path d="M1597.31,280.15l14.48-12.57,1.9,2c-3.31,3.52-6.61,7.05-10.19,10.87l10.21,10.81-1.86,2Z" transform="translate(-106 -82.67)"/><path d="M282.33,545.11q-5.06,5.35-10.12,10.72l-1.7,1.8,12.38,8.5-2.14,2.39-14.89-12.76L280.44,543Z" transform="translate(-106 -82.67)"/><path d="M1689.13,280.18l14.47-12.61,1.93,2-10.21,10.82,10.2,10.84-1.82,2Z" transform="translate(-106 -82.67)"/><path d="M188.56,568.71l-13.68-12.39a37.33,37.33,0,0,1,14.25-12.72c.48.52,1,1,1.43,1.55l-12.07,12.64L190.24,567Z" transform="translate(-106 -82.67)"/><path d="M190.61,729.21l-13.25,10.3L191,749.77l-2.09,2.34-14.85-12.62,14.51-12.79Z" transform="translate(-106 -82.67)"/><path d="M1693.58,649.56c4.5,3.13,8.42,5.86,12.33,8.6l-2,2.27-14.05-12.16a37.85,37.85,0,0,1,14.31-12.85l1.44,1.56Z" transform="translate(-106 -82.67)"/><path d="M1613.89,637.37l-11.83,8.93,11.67,12.28-1.92,2-14.39-13,14.33-12.69C1612.46,635.7,1613.17,636.54,1613.89,637.37Z" transform="translate(-106 -82.67)"/><path d="M1510,649.56c4.49,3.13,8.41,5.86,12.32,8.6l-2,2.27-14-12.16a37.75,37.75,0,0,1,14.3-12.85l1.44,1.56Z" transform="translate(-106 -82.67)"/><path d="M1428.13,660.56l-14.4-13.09,14.49-12.6,1.86,2.08-11.68,12.36,11.67,9.27Z" transform="translate(-106 -82.67)"/><path d="M1336.29,660.55l-14.31-13,14.25-12.64,2.1,2.1-12.2,12.66,11.81,9.22Z" transform="translate(-106 -82.67)"/><path d="M1244.46,660.54l-14.31-13,14.28-12.66,2,2-12.19,13,11.83,9.08Z" transform="translate(-106 -82.67)"/><path d="M1152.68,660.58l-14.38-13.05,14.39-12.67,1.9,2-11.4,12.17,11.94,8.84Z" transform="translate(-106 -82.67)"/><path d="M1060.86,660.55l-13.69-12.37a38.58,38.58,0,0,1,14.18-12.8l1.48,1.59-12.06,12.69,12.51,8.39Z" transform="translate(-106 -82.67)"/><path d="M958.77,649.77l12.64,8.33-2.18,2.29L954.6,647.65c5.11-4.53,9.74-8.63,14.36-12.74L971,637Z" transform="translate(-106 -82.67)"/><path d="M879.18,637l-12,12.7L879.67,658l-2.12,2.35-14.21-12.26c4.4-5.53,8.64-10.12,14.49-12.64Z" transform="translate(-106 -82.67)"/><path d="M770.94,647.49l14.47-12.58,1.9,2-10.18,10.88,10.24,10.84-1.91,1.93Z" transform="translate(-106 -82.67)"/><path d="M695.29,637l-11.21,9.58,11.45,12.05-1.91,2-14.4-13,14.33-12.68Z" transform="translate(-106 -82.67)"/><path d="M604.26,637.56q-6.15,4.35-12.28,8.72l-.36,3.61,12.51,8.22L602,660.43l-14.67-12.78,14.36-12.74Z" transform="translate(-106 -82.67)"/><path d="M1506.93,923.52l-14.47,12.54-1.87-1.91L1502,921.81l-12.27-8.42c.77-.85,1.53-1.7,2.3-2.54C1498,913,1501.36,918.63,1506.93,923.52Z" transform="translate(-106 -82.67)"/><path d="M1598.82,923.42l-14.52,12.63-1.91-1.9,11.36-12.25-12.14-8.5,2.14-2.39C1589.91,912.83,1593,918.73,1598.82,923.42Z" transform="translate(-106 -82.67)"/><path d="M1685.55,921.92l-12.13-8.42,2-2.24c6.41,1.38,9.34,7.52,15.09,12l-14.27,12.86-2-2Z" transform="translate(-106 -82.67)"/><path d="M170.68,95.28l-12.4-8.38,2.35-2.58c5.93,2.29,9.4,7.8,14.79,12.66l-14.34,12.57-1.91-1.94Z" transform="translate(-106 -82.67)"/><path d="M252.4,84.53c6.21,2.12,9.61,7.74,14.79,12.53L253,109.57,251,107.66c3.32-3.6,6.65-7.2,11.19-12.1L250.55,86.7Z" transform="translate(-106 -82.67)"/><path d="M342.8,107.56l10-10.58L355,94.92l-13-8,2.21-2.3c6.34,1.87,9.43,7.88,15,12.24l-14.31,12.8Z" transform="translate(-106 -82.67)"/><path d="M451.11,96.94l-14.58,12.63-1.85-1.9L446,95.29,433.75,86.9l2.31-2.55C442.07,86.5,445.36,92.24,451.11,96.94Z" transform="translate(-106 -82.67)"/><path d="M542.9,96.93l-14.53,12.62-1.9-1.91L537.83,95.4l-12.15-8.49,2.14-2.4C534,86.33,537.12,92.23,542.9,96.93Z" transform="translate(-106 -82.67)"/><path d="M618.26,107.59,628.2,97l2.07-1.9-13-8.09,2.35-2.48c6.32,1.87,9.41,7.88,15.14,12.33l-14.59,12.7Z" transform="translate(-106 -82.67)"/><path d="M726.51,97,712,109.55l-1.91-1.92,11.32-12.18L709.57,86.6l1.91-2.14C717.59,86.38,720.79,92.21,726.51,97Z" transform="translate(-106 -82.67)"/><path d="M801.91,107.58,811.84,97l1.94-1.77-12.42-8.73,2-2.13c6,2.27,9.47,7.8,14.8,12.67l-14.38,12.52Z" transform="translate(-106 -82.67)"/><path d="M905.07,95.44l-11.86-8.85,1.92-2.14c6.09,2,9.32,7.75,14.88,12.41l-14.3,12.72-2-2Z" transform="translate(-106 -82.67)"/><path d="M985.54,107.56l10-10.58,2.18-2.06-13-8,2.3-2.43c6.1,2.18,9.52,7.78,14.75,12.55l-14.12,12.62Z" transform="translate(-106 -82.67)"/><path d="M1093.9,96.85l-14.6,12.7-1.92-1.9,11.37-12.25-12.16-8.47,2.17-2.44C1084.9,86.33,1088,92.31,1093.9,96.85Z" transform="translate(-106 -82.67)"/><path d="M1185.65,96.84l-14.49,12.72-1.94-1.91,11.31-12.21-12.15-8.38,2.06-2.26C1177,86.3,1180,92.59,1185.65,96.84Z" transform="translate(-106 -82.67)"/><path d="M1277.54,96.85l-14.6,12.7-1.92-1.9,11.37-12.25-12.16-8.47,2.17-2.44C1268.54,86.33,1271.61,92.31,1277.54,96.85Z" transform="translate(-106 -82.67)"/><path d="M1364.22,95.38,1352,86.89l2.17-2.41c6.13,1.89,9.31,7.73,14.91,12.36l-14.3,12.75-2-2Z" transform="translate(-106 -82.67)"/><path d="M1456,95.45l-11.84-8.84,1.9-2.13c6.13,1.89,9.31,7.73,14.91,12.36l-14.3,12.75-2-2Z" transform="translate(-106 -82.67)"/><path d="M1538.58,83.82l14.31,13-14.47,12.8-1.94-1.93,11.41-12.32-12.26-8.43Z" transform="translate(-106 -82.67)"/><path d="M1640,95l-12.49-8.23,2.14-2.23c6.35,1.88,9.45,7.88,15,12.24-5.17,4.61-9.75,8.7-14.34,12.78l-2-1.9Z" transform="translate(-106 -82.67)"/><path d="M1721.53,84.46c6.13,2.15,9.52,7.78,14.76,12.53-5,4.43-9.54,8.53-14.12,12.62l-2.05-1.91,9.94-10.77,2.07-1.86-12.43-8.71Z" transform="translate(-106 -82.67)"/><path d="M446.1,279l-11.91-8.9,1.9-2.1c6,2.25,9.32,7.9,14.9,12.56l-14.45,12.67-1.91-2Z" transform="translate(-106 -82.67)"/><path d="M114.72,176.17c6,2.3,9.44,7.8,14.8,12.68l-14.37,12.54-1.89-2,9.88-10.55,2-1.76-13-8.12Z" transform="translate(-106 -82.67)"/><path d="M221.54,188.68,207.05,201.4l-1.94-1.91,11.32-12.22-12.16-8.38,2.06-2.26C212.9,178.14,215.85,184.42,221.54,188.68Z" transform="translate(-106 -82.67)"/><path d="M313.25,188.92l-14.47,12.49-1.88-2,9.87-10.54,2-1.73-13-8.17,2.63-2.83C304.31,178.47,307.79,184,313.25,188.92Z" transform="translate(-106 -82.67)"/><path d="M388.68,199.36l11.46-12-12.23-8.43,2-2.25c6.57,1.51,9.66,7.62,15,12.23L390.69,201.4Z" transform="translate(-106 -82.67)"/><path d="M480.52,199.39l10-10.59,2.21-2.11-13-8.05L482,176.3c6.14,2.15,9.53,7.78,14.76,12.53l-14.13,12.61Z" transform="translate(-106 -82.67)"/><path d="M573.78,176.29c6.13,2.15,9.53,7.78,14.76,12.53l-14.12,12.62-2-1.91,9.93-10.76,2-1.81L572,178.15Z" transform="translate(-106 -82.67)"/><path d="M679.94,189.26l-13.76,12.15-2-1.91L674.83,188l-11.45-9.09C668.16,176.35,672.39,179.33,679.94,189.26Z" transform="translate(-106 -82.67)"/><path d="M756,199.41l9.93-10.57c.69-.63,1.38-1.26,2.06-1.9l-13-8.08c.82-.87,1.64-1.73,2.45-2.6,6.12,2.12,9.38,7.91,15,12.48L757.88,201.4Z" transform="translate(-106 -82.67)"/><path d="M847.79,199.38l10.07-10.62,2.32-2.24-13.13-7.91,2.15-2.23c6.25,2,9.59,7.74,14.82,12.47l-14.18,12.57Z" transform="translate(-106 -82.67)"/><path d="M951,187.26l-12.13-8.42,2-2.24c6.41,1.38,9.34,7.52,15.09,12l-14.27,12.86-2-2Z" transform="translate(-106 -82.67)"/><path d="M1031.46,199.31c3.39-3.58,6.79-7.15,11.49-12.1l-12.32-8.49,2.13-2.37c6.09,1.63,9,7.57,15.08,12.08l-14.35,13Z" transform="translate(-106 -82.67)"/><path d="M1124.75,176.17c6,2.28,9.35,7.91,14.91,12.57l-14.49,12.65-1.89-2,9.88-10.55,2-1.77-13-8.14Z" transform="translate(-106 -82.67)"/><path d="M1217.24,175.66l14.31,13L1217,201.38c-.64-.64-1.27-1.29-1.91-1.94q4.94-5.26,9.86-10.55l1.93-1.69-13-8.18Z" transform="translate(-106 -82.67)"/><path d="M1323.16,188.84l-14.25,12.57-2-1.92,11.19-12.09-11.66-8.86,1.69-1.88C1314.74,178.14,1317.8,184.28,1323.16,188.84Z" transform="translate(-106 -82.67)"/><path d="M1398.78,199.25q4.92-5.16,9.83-10.31l1.87-1.7-13-8.2,2.68-2.88c5.93,2.29,9.41,7.8,14.79,12.66l-14.35,12.56Z" transform="translate(-106 -82.67)"/><path d="M1490.52,199.36l11.46-12-12.23-8.43,2-2.25c6.57,1.51,9.65,7.62,15,12.23l-14.27,12.53Z" transform="translate(-106 -82.67)"/><path d="M1583.82,176.25c6.06,2.22,9.5,7.79,14.82,12.64l-14.38,12.52-1.89-2,10-10.58,2-1.8-12.38-8.77Z" transform="translate(-106 -82.67)"/><path d="M1674.19,199.41l10-10.58,2.09-1.93-13-8.07,2.45-2.61c6,2.26,9.48,7.8,14.81,12.66l-14.38,12.52Z" transform="translate(-106 -82.67)"/><path d="M170.16,279.48l-11.65-8.87,1.91-2.12c6.57,1.47,9.63,7.63,15,12.19l-14.26,12.56-1.95-1.91Z" transform="translate(-106 -82.67)"/><path d="M252.36,268.24c6.32,2,9.49,7.88,15,12.3L253,293.25l-2-1.92,10-10.79,2.4-2.25-13.19-7.83Z" transform="translate(-106 -82.67)"/><path d="M353.8,279.48l-11.65-8.87,1.91-2.12c6.57,1.47,9.63,7.63,15,12.19L344.8,293.24l-1.95-1.91Z" transform="translate(-106 -82.67)"/><path d="M526.45,291.25l9.93-10.57,2.07-1.9-13-8.09,2.48-2.65c6,2.27,9.47,7.8,14.8,12.67l-14.38,12.52Z" transform="translate(-106 -82.67)"/><path d="M629.73,279l-12-8.84,2-2.16c6,2.25,9.32,7.9,14.9,12.56l-14.45,12.67-1.91-2Z" transform="translate(-106 -82.67)"/><path d="M726.49,280.66,712,293.22l-1.9-1.92L721.51,279l-12.24-8.46,2.24-2.49C717.54,270.14,720.85,275.83,726.49,280.66Z" transform="translate(-106 -82.67)"/><path d="M818.36,280.58l-14.52,12.63-1.92-1.89,11.37-12.25-12.16-8.47,2.16-2.42C809.44,270,812.57,275.89,818.36,280.58Z" transform="translate(-106 -82.67)"/><path d="M893.72,291.24l10-10.58,2.14-2-13.05-8.05,2.41-2.54c6.05,2.22,9.49,7.79,14.81,12.64-5.06,4.41-9.72,8.47-14.39,12.52C895,292.57,894.35,291.91,893.72,291.24Z" transform="translate(-106 -82.67)"/><path d="M997,279l-12.35-8.37c.77-.86,1.55-1.72,2.33-2.57,6,2.18,9.31,7.89,14.93,12.51l-14.44,12.7-1.89-1.9Z" transform="translate(-106 -82.67)"/><path d="M1088.88,279l-12.4-8.39,2.35-2.57c5.93,2.28,9.4,7.8,14.79,12.65l-14.34,12.58-1.91-2Z" transform="translate(-106 -82.67)"/><path d="M1185.56,280.71l-14.47,12.52-1.86-1.89L1180.6,279l-12.29-8.4c.77-.85,1.55-1.7,2.32-2.56C1176.59,270.22,1180,275.79,1185.56,280.71Z" transform="translate(-106 -82.67)"/><path d="M1262.48,268c6,2.28,9.35,7.92,14.91,12.58l-14.49,12.64-1.89-2,9.88-10.55,2-1.76-13-8.15Z" transform="translate(-106 -82.67)"/><path d="M1354.94,267.48l14.31,12.95-14.47,12.8-1.94-1.92L1364.2,279l-11.88-8.84Z" transform="translate(-106 -82.67)"/><path d="M1446,268.21c6.23,2.08,9.61,7.73,14.81,12.5l-14.2,12.54-2-1.92,10-10.79,2.15-2-12.42-8.66Z" transform="translate(-106 -82.67)"/><path d="M1552.73,280.72l-14.39,12.52-1.88-2,10-10.58,2-1.8L1536,270.09l1.9-2C1544,270.3,1547.41,275.87,1552.73,280.72Z" transform="translate(-106 -82.67)"/><path d="M1628.27,291.24q5-5.31,10-10.6l2-1.87-12.42-8.72,1.86-1.94c6.1,2.18,9.51,7.78,14.75,12.54l-14.12,12.63Z" transform="translate(-106 -82.67)"/><path d="M1720.07,291.2l11.38-12-12.8-9.53c6.21-.86,10.17,2.1,17.22,11.4l-13.77,12.14Z" transform="translate(-106 -82.67)"/><path d="M124.76,370.71l-11.93-8.8,1.9-2.05c6,2.29,9.46,7.8,14.7,12.6l-14,12.64-2.08-1.9Z" transform="translate(-106 -82.67)"/><path d="M206.52,360c6.16,2.2,9.62,7.72,14.75,12.58l-14.22,12.47-1.94-1.91,11.17-12.06-11.61-8.95Z" transform="translate(-106 -82.67)"/><path d="M308.44,370.75,296,362.38l2.34-2.56c5.93,2.31,9.41,7.81,14.78,12.68L298.8,385.05l-1.9-1.95C300.19,379.59,303.47,376.08,308.44,370.75Z" transform="translate(-106 -82.67)"/><path d="M390.19,359.83c5.95,2.32,9.43,7.81,14.79,12.69l-14.37,12.53-1.9-1.95,9.89-10.56,1.93-1.71L388,362.18Z" transform="translate(-106 -82.67)"/><path d="M496.89,372.58l-14.46,12.49-1.89-2,9.85-10.53,1.92-1.69-13-8.19,2.67-2.87C487.94,362.12,491.42,367.63,496.89,372.58Z" transform="translate(-106 -82.67)"/><path d="M583.46,371.2l-11.84-8.84c.71-.78,1.41-1.57,2.12-2.36,6.15,1.84,9.29,7.72,14.92,12.31L574.37,385.1l-2-2Z" transform="translate(-106 -82.67)"/><path d="M680.72,372.36,666.1,385.05l-1.91-1.92,11.39-12.25-12.19-8.49,2.16-2.4C671.73,361.82,674.79,367.83,680.72,372.36Z" transform="translate(-106 -82.67)"/><path d="M756,383l11.5-12L755.2,362.5l2.21-2.5c6.12,1.82,9.17,7.79,15,12.22L758,385.11C757.34,384.41,756.64,383.72,756,383Z" transform="translate(-106 -82.67)"/><path d="M864.27,372.4l-14.58,12.68-1.88-2,10-10.59,2.13-2-13-8c.78-.83,1.57-1.65,2.35-2.47C855.43,362,858.61,367.89,864.27,372.4Z" transform="translate(-106 -82.67)"/><path d="M941.06,360c6.13,2.15,9.53,7.77,14.76,12.53L941.7,385.11l-2-1.91,9.93-10.77,2.25-2.06-13.07-8Z" transform="translate(-106 -82.67)"/><path d="M1139.77,372.43l-14.59,12.63-1.86-1.9,11.37-12.36-12.27-8.41,2.28-2.52C1130.73,362,1134,367.75,1139.77,372.43Z" transform="translate(-106 -82.67)"/><path d="M1215.05,383l11.49-12-12.24-8.47,2.21-2.5c6.12,1.81,9.17,7.8,15,12.22l-14.33,12.89C1216.44,384.41,1215.74,383.72,1215.05,383Z" transform="translate(-106 -82.67)"/><path d="M1323.3,372.31,1309,385.11l-2-1.92,9.93-10.76,2-1.83-12.32-8.8,1.68-1.73C1314.61,361.94,1317.7,368,1323.3,372.31Z" transform="translate(-106 -82.67)"/><path d="M1400.85,359.32l14.3,12.94c-5.19,4.61-9.83,8.71-14.46,12.81l-1.94-1.94,11.36-12.24L1398.23,362Z" transform="translate(-106 -82.67)"/><path d="M1507.07,372.4l-14.6,12.66-1.91-1.92L1502,370.85l-12.24-8.47,2.21-2.45C1498.06,361.9,1501.22,367.79,1507.07,372.4Z" transform="translate(-106 -82.67)"/><path d="M1593.37,371.31l-11.66-8.87,1.92-2.12c6.57,1.48,9.63,7.63,15,12.19l-14.26,12.56-1.95-1.91Z" transform="translate(-106 -82.67)"/><path d="M1690.59,372.41l-14.51,12.65-1.89-2q5-5.28,9.91-10.57l1.94-1.74-12.45-8.71,2.07-2.2C1681.68,362.1,1685,367.78,1690.59,372.41Z" transform="translate(-106 -82.67)"/><path d="M161.3,451.1l14.25,13-14.37,12.85-2-2,11.37-12.24c-4-2.79-8.06-5.65-12.15-8.5C159.37,453.18,160.34,452.14,161.3,451.1Z" transform="translate(-106 -82.67)"/><path d="M262.35,462.75c-4-2.75-8.05-5.59-12.15-8.42l2-2.24c6.47,1.32,9.31,7.59,15.12,12L253,477l-2-2Z" transform="translate(-106 -82.67)"/><path d="M342.84,474.77l11.51-12.09-12.44-8.44,2.34-2.58c5.95,2.25,9.39,7.8,14.81,12.63l-14.33,12.59Z" transform="translate(-106 -82.67)"/><path d="M446.29,462.5l-12.49-8.32c.76-.83,1.53-1.65,2.3-2.48,6,2.28,9.46,7.8,14.79,12.67L436.51,476.9l-1.88-2Z" transform="translate(-106 -82.67)"/><path d="M527.86,451.86c6.21,2.13,9.61,7.74,14.79,12.53l-14.21,12.52-2-1.92,11.31-12.22c-3.94-2.73-8-5.55-12.13-8.37Z" transform="translate(-106 -82.67)"/><path d="M619.72,451.75c6.06,2.22,9.49,7.79,14.81,12.64l-14.39,12.52c-.63-.67-1.25-1.34-1.88-2l10-10.59,2.14-2-13-8Z" transform="translate(-106 -82.67)"/><path d="M721.44,462.76l-12.13-8.43,2-2.23c6.41,1.38,9.34,7.52,15.09,12L712.14,477l-2-2Z" transform="translate(-106 -82.67)"/><path d="M817.67,464.76l-13.76,12.15-2-1.91,10.62-11.48-11.45-9.09C805.88,451.85,810.12,454.83,817.67,464.76Z" transform="translate(-106 -82.67)"/><path d="M893.77,474.74l9.83-10.3,1.87-1.7-13-8.2c.9-1,1.79-1.92,2.68-2.89,5.93,2.3,9.41,7.81,14.79,12.67l-14.35,12.56Z" transform="translate(-106 -82.67)"/><path d="M985.54,474.91q5-5.28,9.94-10.57l2.06-1.9-13-8.08c.82-.87,1.64-1.73,2.45-2.6,6.12,2.12,9.38,7.91,15,12.48L987.43,476.9Z" transform="translate(-106 -82.67)"/><path d="M1089.11,462.34l-12.53-8.21,2.17-2.25c6.25,2,9.59,7.73,14.82,12.47l-14.18,12.57-2-1.91Z" transform="translate(-106 -82.67)"/><path d="M1180.55,462.68l-11.88-8.82,2-2.19c6,2.21,9.37,7.79,14.81,12.6l-14.32,12.62-1.88-1.89Z" transform="translate(-106 -82.67)"/><path d="M1277.19,464.32l-14.13,12.62-2-1.91,9.94-10.77,2.08-1.87-12.42-8.7,1.81-1.89C1268.56,454,1272,459.57,1277.19,464.32Z" transform="translate(-106 -82.67)"/><path d="M1364.19,462.75,1352,454.33l2-2.24c6.47,1.32,9.31,7.59,15.12,12L1354.87,477l-2-2Z" transform="translate(-106 -82.67)"/><path d="M1461.12,464.31l-14.59,12.6-1.88-2,9.86-10.54,2-1.73-13-8.17,2.63-2.83C1452.08,453.93,1455.46,459.58,1461.12,464.31Z" transform="translate(-106 -82.67)"/><path d="M1536.48,474.79,1548,462.7l-12.36-8.48,2.17-2.37c6.27,1.78,9.31,7.85,15.11,12.26l-14.48,12.78Z" transform="translate(-106 -82.67)"/><path d="M1639.87,462.46l-12.42-8.28,2.3-2.48c6,2.28,9.46,7.8,14.71,12.59l-14,12.64-2.08-1.89C1631.61,471.46,1634.89,467.89,1639.87,462.46Z" transform="translate(-106 -82.67)"/><path d="M1031.45,383.07l10-10.58,2-1.8L1031,361.92l1.91-2c6,2.23,9.49,7.79,14.81,12.65l-14.38,12.51Z" transform="translate(-106 -82.67)"/><path d="M1720.05,474.85l11.5-12.05-12.25-8.47,2.21-2.48c6.11,1.81,9.24,7.69,14.89,12.27l-14.25,12.82Z" transform="translate(-106 -82.67)"/><path d="M115.39,542.94l14.25,13-14.37,12.85-2-2,11.29-12.17-11.81-8.85Z" transform="translate(-106 -82.67)"/><path d="M205,566.69l11.37-11.94-11.81-8.87,1.72-1.91c6.57,1.51,9.66,7.63,15,12.23l-14.28,12.53Z" transform="translate(-106 -82.67)"/><path d="M299,542.93l14.24,13-14.33,12.89-2-2,11.25-12.12-11.73-8.89C297.3,544.84,298.16,543.88,299,542.93Z" transform="translate(-106 -82.67)"/><path d="M390.83,543l14.31,12.95c-5.2,4.61-9.84,8.7-14.47,12.8l-1.93-1.93,11.36-12.26-11.88-8.84Z" transform="translate(-106 -82.67)"/><path d="M497,556l-14.48,12.72-1.95-1.91,11.32-12.22-12.16-8.38c.69-.75,1.38-1.5,2.06-2.26C488.36,545.47,491.31,551.76,497,556Z" transform="translate(-106 -82.67)"/><path d="M583.85,554.47,572,545.56l1.88-2.07c5.95,2.28,9.33,7.91,14.9,12.57l-14.47,12.66-1.9-2C575.65,563.26,578.93,559.74,583.85,554.47Z" transform="translate(-106 -82.67)"/><path d="M665.65,543.49c6,2.28,9.35,7.92,14.91,12.58l-14.49,12.65-1.89-2,9.88-10.55,2-1.76-13-8.12Z" transform="translate(-106 -82.67)"/><path d="M772.37,556.19,757.9,568.73c-.62-.63-1.24-1.27-1.87-1.9l11.38-12.36-12.27-8.41,2.3-2.55C763.4,545.7,766.8,551.3,772.37,556.19Z" transform="translate(-106 -82.67)"/><path d="M864.17,556.24l-14.46,12.5-1.89-2,9.85-10.54,1.92-1.68-13-8.19c.89-1,1.78-1.91,2.66-2.87C855.22,545.79,858.69,551.29,864.17,556.24Z" transform="translate(-106 -82.67)"/><path d="M956.12,556.11l-14.58,12.62-1.85-1.89,11.36-12.39-12.29-8.39c.77-.84,1.54-1.69,2.3-2.54C947.07,545.67,950.37,551.4,956.12,556.11Z" transform="translate(-106 -82.67)"/><path d="M1047.85,556.08l-14.5,12.65-1.89-2,9.91-10.56,2-1.83-13-8.12,2.54-2.71C1038.94,545.77,1042.28,551.45,1047.85,556.08Z" transform="translate(-106 -82.67)"/><path d="M1124.66,543.72c6.3,2,9.5,7.88,15,12.34l-14.4,12.68-2-1.92,11.18-12.08c-3.78-2.9-7.71-5.9-11.64-8.89Z" transform="translate(-106 -82.67)"/><path d="M1217.23,542.93l14.23,13c-5.11,4.61-9.72,8.75-14.33,12.89l-2-2,11.35-12.24-12.18-8.41Z" transform="translate(-106 -82.67)"/><path d="M1307,566.57l9.85-10.31,1.89-1.73L1306.06,546c.78-.83,1.55-1.67,2.32-2.5,6,2.27,9.34,7.91,14.91,12.57l-14.47,12.66Z" transform="translate(-106 -82.67)"/><path d="M1410.27,554.34l-12-8.66,2-2.15c6,2.29,9.45,7.8,14.7,12.59l-14,12.64-2.08-1.9Z" transform="translate(-106 -82.67)"/><path d="M1502.1,554.42,1489.69,546l2.33-2.55c6,2.27,9.34,7.91,14.91,12.57l-14.47,12.66-1.91-2Z" transform="translate(-106 -82.67)"/><path d="M1594.07,554.21,1581.58,546l2.17-2.27c6.25,2,9.56,7.74,14.83,12.44l-14.16,12.62c-.67-.64-1.34-1.28-2-1.91Z" transform="translate(-106 -82.67)"/><path d="M1690.38,556.16l-14.13,12.61-2-1.91,9.93-10.77,2.25-2.05-13-8.06,2.24-2.34C1681.76,545.78,1685.15,551.41,1690.38,556.16Z" transform="translate(-106 -82.67)"/><path d="M161.3,634.82l14.31,13-14.52,12.76-1.89-1.9,11.42-12.36-12.35-8.38Z" transform="translate(-106 -82.67)"/><path d="M262.08,646.71l-11.59-9.09,1.88-2.12c6.15,1.84,9.29,7.72,14.92,12.31L253,660.6l-2-2Z" transform="translate(-106 -82.67)"/><path d="M354.5,646,342,637.81l2.17-2.27c6.25,2,9.56,7.74,14.83,12.45L344.85,660.6l-2-1.91Z" transform="translate(-106 -82.67)"/><path d="M446,646.38l-12.17-8.49,2.17-2.42c6.12,1.9,9.31,7.74,14.9,12.36l-14.3,12.76-2-2Z" transform="translate(-106 -82.67)"/><path d="M526.44,658.49l11.47-12.09-12.26-8.52,2.2-2.45c6.08,2,9.33,7.76,14.88,12.43l-14.3,12.72Z" transform="translate(-106 -82.67)"/><path d="M634.51,648c-5,4.45-9.64,8.51-14.25,12.56l-2-1.91,11.3-12.22-12.12-8.37,2-2.25C626.09,637.3,629.16,643.44,634.51,648Z" transform="translate(-106 -82.67)"/><path d="M710.08,658.58,720,648l2.06-1.89-13-8.09,2.48-2.64c6,2.27,9.47,7.79,14.8,12.66L712,660.56Z" transform="translate(-106 -82.67)"/><path d="M801.89,658.49l11.42-12-11.91-8.89,1.91-2.15c6.08,2,9.33,7.76,14.88,12.43l-14.31,12.72Z" transform="translate(-106 -82.67)"/><path d="M904.82,646.7,893,637.86l2.12-2.36c6.15,1.84,9.29,7.72,14.92,12.31L895.74,660.6l-2-2C897.12,655,900.49,651.38,904.82,646.7Z" transform="translate(-106 -82.67)"/><path d="M987,635.46c6.13,2.15,9.53,7.77,14.76,12.53l-14.12,12.62-2-1.91,9.93-10.77,2.25-2.06-13.07-8Z" transform="translate(-106 -82.67)"/><path d="M1093.63,648.05l-14.39,12.52-1.88-2,10-10.58,2.14-2-13-8,2.41-2.54C1084.87,637.63,1088.31,643.2,1093.63,648.05Z" transform="translate(-106 -82.67)"/><path d="M1170.57,635.56c6.3,2,9.5,7.88,15,12.33l-14.4,12.68-2-1.91,11.18-12.09-11.64-8.89Z" transform="translate(-106 -82.67)"/><path d="M1263.13,634.76l14.24,13c-5.11,4.61-9.72,8.75-14.32,12.89l-2-2,11.35-12.24L1260.21,638Z" transform="translate(-106 -82.67)"/><path d="M1364.23,646.34l-11.93-8.83,2-2.19c6,2.25,9.39,7.8,14.81,12.63l-14.33,12.6-1.89-1.9Z" transform="translate(-106 -82.67)"/><path d="M1444.64,658.58q5-5.3,9.94-10.57l2.06-1.9-13-8.09,2.49-2.64c6,2.27,9.47,7.79,14.8,12.66l-14.38,12.52Z" transform="translate(-106 -82.67)"/><path d="M1537.85,635.57c6.31,2,9.49,7.88,15,12.31l-14.4,12.69-2-1.91,11.31-12.23-12.13-8.37Z" transform="translate(-106 -82.67)"/><path d="M1639.87,646.12l-12.42-8.28c.77-.82,1.54-1.65,2.3-2.48,6,2.29,9.46,7.8,14.71,12.6-4.93,4.43-9.49,8.53-14,12.64l-2.08-1.9Z" transform="translate(-106 -82.67)"/><path d="M1721.57,635.33c6,2.3,9.43,7.81,14.79,12.68L1722,660.55l-1.89-2,9.87-10.54,2-1.77q-6.53-4-13-8.12Z" transform="translate(-106 -82.67)"/><path d="M114.63,727.4c6.32,2,9.49,7.88,15,12.31l-14.39,12.7-2-1.91,10-10.8,2.4-2.25-13.19-7.83Z" transform="translate(-106 -82.67)"/><path d="M221.46,739.86,207,752.4c-.62-.64-1.24-1.28-1.87-1.91l11.38-12.35-12.26-8.42,2.29-2.54C212.49,729.37,215.88,735,221.46,739.86Z" transform="translate(-106 -82.67)"/><path d="M296.89,750.41l10-10.59,2.13-2-13-8,2.29-2.4c6.33,1.87,9.42,7.88,15.13,12.32L298.78,752.4Z" transform="translate(-106 -82.67)"/><path d="M400.13,738.2l-12.21-8.48,2.2-2.44c6.09,2,9.32,7.75,14.88,12.41l-14.3,12.72-2-1.95Z" transform="translate(-106 -82.67)"/><path d="M482,727.16c6,2.28,9.35,7.91,14.91,12.58l-14.49,12.65-1.89-2q4.93-5.28,9.88-10.55l1.93-1.72-12.57-8.62C480.52,728.75,481.26,728,482,727.16Z" transform="translate(-106 -82.67)"/><path d="M573.83,727.16c6,2.28,9.35,7.91,14.91,12.58l-14.49,12.65-1.89-2q4.93-5.28,9.88-10.55l1.93-1.72-12.57-8.62C572.34,728.75,573.08,728,573.83,727.16Z" transform="translate(-106 -82.67)"/><path d="M680.53,739.91,666.07,752.4l-1.89-2q4.92-5.28,9.85-10.54l1.92-1.69L663,730l2.67-2.88C671.58,729.45,675.06,735,680.53,739.91Z" transform="translate(-106 -82.67)"/><path d="M772.34,739.92c-5.31,4.6-9.89,8.54-14.46,12.49l-1.88-2,9.87-10.55,2-1.73-13-8.16,2.63-2.83C763.41,729.47,766.89,735,772.34,739.92Z" transform="translate(-106 -82.67)"/><path d="M850,726.64l14.21,12.94-14.38,12.85-2-2,11.36-12.24-12.14-8.51C848,728.7,849,727.67,850,726.64Z" transform="translate(-106 -82.67)"/><path d="M939.61,750.34l11.48-12.08-12.23-8.54,2.16-2.4c6.14,1.87,9.31,7.73,14.91,12.34l-14.3,12.76C941,751.73,940.28,751,939.61,750.34Z" transform="translate(-106 -82.67)"/><path d="M1047.91,739.76l-14.53,12.62-1.91-1.9,11.29-12.16-11.8-8.87,1.87-2.11C1039,729.16,1042.12,735.06,1047.91,739.76Z" transform="translate(-106 -82.67)"/><path d="M1123.25,750.38l10.07-10.62,2.08-2L1123.05,729c.53-.55,1.07-1.09,1.61-1.64,6.25,2,9.59,7.73,14.82,12.47l-14.18,12.57Z" transform="translate(-106 -82.67)"/><path d="M1217.21,726.65l14.3,12.94c-5.19,4.61-9.83,8.71-14.46,12.81l-1.94-1.94c3.38-3.63,6.75-7.27,11.41-12.3l-12.25-8.44Z" transform="translate(-106 -82.67)"/><path d="M1306.87,750.35l11.49-12.05-12.25-8.47,2.21-2.48c6.12,1.81,9.25,7.69,14.89,12.27L1309,752.44Z" transform="translate(-106 -82.67)"/><path d="M1410.19,738.12l-12.35-8.38,2.34-2.58c6,2.24,9.39,7.79,14.81,12.62l-14.33,12.6-1.89-1.9Z" transform="translate(-106 -82.67)"/><path d="M1501.92,738.24l-12.15-8.42c5.69-1.74,7.87-.14,16.62,10.22l-13.79,12.4-2-2Z" transform="translate(-106 -82.67)"/><path d="M1582.37,750.31l11.5-12.1-12.32-8.5,2.14-2.38c6,1.72,9.12,7.47,14.94,12.21l-14.22,12.9Z" transform="translate(-106 -82.67)"/><path d="M1674.2,750.29l11.5-12.09-12.36-8.48,2.29-2.54c6,2.18,9.36,7.79,14.82,12.57l-14.31,12.64Z" transform="translate(-106 -82.67)"/><path d="M159.12,842.18l11.5-12-12.26-8.47,2.21-2.48c6.12,1.82,9.25,7.7,14.9,12.28-5.05,4.53-9.66,8.68-14.26,12.82Z" transform="translate(-106 -82.67)"/><path d="M251,842.2l11.45-12-12.19-8.42c5.54-1.91,9.49,1.06,16.55,10.36L253,844.24Z" transform="translate(-106 -82.67)"/><path d="M345,818.49l14.31,13-14.55,12.72-1.9-1.94,9.85-10.54,1.93-1.7-13-8.18Z" transform="translate(-106 -82.67)"/><path d="M451.08,831.58l-14.52,12.63-1.92-1.89L446,830.07l-12.16-8.47,2.16-2.42C442.16,821,445.29,826.89,451.08,831.58Z" transform="translate(-106 -82.67)"/><path d="M537.55,830.37l-11.84-8.84c.71-.79,1.41-1.58,2.12-2.36,6.15,1.83,9.29,7.72,14.92,12.31l-14.29,12.78-2-2Z" transform="translate(-106 -82.67)"/><path d="M629.94,829.82l-12.5-8.31c.76-.83,1.53-1.65,2.29-2.47,6,2.27,9.47,7.8,14.8,12.67l-14.38,12.53-1.88-2Z" transform="translate(-106 -82.67)"/><path d="M710.09,842.24,720,831.67l2.06-1.89-13-8.09,2.36-2.48c6.32,1.86,9.41,7.88,15.14,12.32L712,844.23C711.34,843.57,710.71,842.91,710.09,842.24Z" transform="translate(-106 -82.67)"/><path d="M813,830.37l-11.84-8.84c.71-.79,1.41-1.58,2.12-2.36,6.15,1.83,9.29,7.72,14.92,12.31l-14.29,12.78-2-2Z" transform="translate(-106 -82.67)"/><path d="M905.4,829.82l-12.5-8.31,2.29-2.47c6,2.27,9.47,7.8,14.8,12.67l-14.38,12.52-1.88-2Z" transform="translate(-106 -82.67)"/><path d="M1002,831.59l-14.53,12.62-1.91-1.89,11.29-12.17-11.8-8.86c.62-.71,1.25-1.41,1.87-2.11C993.08,821,996.22,826.89,1002,831.59Z" transform="translate(-106 -82.67)"/><path d="M1078.8,819.18c6.16,2.19,9.63,7.72,14.76,12.57l-14.22,12.48-1.94-1.91,11.32-12.23-12.16-8.37Z" transform="translate(-106 -82.67)"/><path d="M1169.18,842.16l11.41-12-11.92-8.88,1.92-2.15c6.08,2,9.33,7.75,14.88,12.43l-14.31,12.72Z" transform="translate(-106 -82.67)"/><path d="M1277.5,831.51,1263,844.22l-1.92-1.9,11.33-12.24-12.15-8.42,2-2.23C1268.71,820.74,1271.55,827,1277.5,831.51Z" transform="translate(-106 -82.67)"/><path d="M1352.79,842.19l11.37-11.94-11.81-8.87,1.73-1.92c6.57,1.51,9.52,7.8,15.21,12l-14.49,12.72Z" transform="translate(-106 -82.67)"/><path d="M1444.64,842.24l9.95-10.57,2.09-1.94-13-8.07,2.46-2.6c6,2.25,9.47,7.79,14.8,12.65l-14.38,12.52Z" transform="translate(-106 -82.67)"/><path d="M1536.45,842.22l10-10.59,2.22-2.11-13-8,2.23-2.33c6.14,2.14,9.53,7.77,14.76,12.52l-14.13,12.61Z" transform="translate(-106 -82.67)"/><path d="M1629.76,819c5.94,2.31,9.43,7.81,14.78,12.68l-14.36,12.54c-.63-.65-1.27-1.3-1.9-2q5-5.26,9.89-10.55l2-1.76-13-8.15Z" transform="translate(-106 -82.67)"/><path d="M1731.47,830.08l-12.15-8.42,2.22-2.51c6.08,1.85,9.15,7.79,14.94,12.23l-14.33,12.9-2-2Z" transform="translate(-106 -82.67)"/><path d="M114.65,911.06c6.3,2,9.49,7.88,15,12.33l-14.4,12.68-2-1.91,11.3-12.23-12.13-8.37Z" transform="translate(-106 -82.67)"/><path d="M221.46,923.52,207,936.06l-1.87-1.91,11.38-12.34-12.26-8.42,2.29-2.54C212.49,913,215.88,918.63,221.46,923.52Z" transform="translate(-106 -82.67)"/><path d="M296.88,934.06l10-10.6,2-1.87-12.32-8.81,1.74-1.81c6.14,2.14,9.53,7.77,14.76,12.52-5,4.44-9.55,8.52-14.13,12.61Z" transform="translate(-106 -82.67)"/><path d="M388.75,933.94l11.51-12.1-12.44-8.44,2.34-2.58c5.95,2.25,9.39,7.8,14.81,12.63l-14.33,12.6Z" transform="translate(-106 -82.67)"/><path d="M482.65,910.31c4.48,4.06,9,8.11,14.31,13L482.5,936.07l-1.95-1.94L492,921.83l-12.25-8.45Z" transform="translate(-106 -82.67)"/><path d="M572.41,933.9l9.84-10.31,1.89-1.72-13-8.18c.88-1,1.77-1.91,2.66-2.87,5.93,2.3,9.41,7.81,14.78,12.67l-14.35,12.56C573.64,935.33,573,934.62,572.41,933.9Z" transform="translate(-106 -82.67)"/><path d="M664.18,934.1l9.87-10.55,1.93-1.71-12.57-8.61,2.24-2.4c5.94,2.31,9.42,7.8,14.78,12.68l-14.36,12.54Z" transform="translate(-106 -82.67)"/><path d="M767.54,921.75l-12.41-8.38,2.34-2.55c5.95,2.28,9.33,7.91,14.9,12.58L757.9,936.05,756,934.1C759.29,930.59,762.57,927.07,767.54,921.75Z" transform="translate(-106 -82.67)"/><path d="M850,910.32l14.3,13-14.51,12.76-1.89-1.9,11.38-12.32L847.33,913C848.2,912.08,849.07,911.2,850,910.32Z" transform="translate(-106 -82.67)"/><path d="M951.05,921.86l-12.21-8.48,2.2-2.44c6.09,2,9.32,7.75,14.88,12.41l-14.3,12.73-2-2Z" transform="translate(-106 -82.67)"/><path d="M1031.42,934l11.37-11.94L1031,913.21l1.73-1.91c6.57,1.5,9.52,7.79,15.21,12l-14.49,12.72Z" transform="translate(-106 -82.67)"/><path d="M1123.26,934.07q5-5.31,10-10.6l2.18-2.05-13-8,2.2-2.3c6.35,1.86,9.44,7.88,15.05,12.23l-14.32,12.81Z" transform="translate(-106 -82.67)"/><path d="M1215.07,934l10.07-10.61,2.08-2-12.35-8.74,1.61-1.65c6.25,2.05,9.59,7.74,14.82,12.48-5,4.42-9.59,8.49-14.18,12.57Z" transform="translate(-106 -82.67)"/><path d="M1306.93,934l11.49-12.09-12.36-8.48,2.28-2.52c6,2.1,9.29,7.88,14.94,12.45l-14.42,12.74Z" transform="translate(-106 -82.67)"/><path d="M1398.7,934l11.46-12c-4-2.79-8.13-5.61-12.23-8.43,5.64-1.86,9.73,1.24,16.55,10.41l-13.77,12.09Z" transform="translate(-106 -82.67)"/><path d="M144.47,109.25c4-9.29,7.61-17.56,11.2-25.82C158,91.32,150.78,107.46,144.47,109.25Z" transform="translate(-106 -82.67)"/><path d="M250.15,84.66c-2.48,8.77-5.22,17.43-10.5,24.92l-2.86-1.27L247.4,83.44Z" transform="translate(-106 -82.67)"/><path d="M339.31,83.42c2.41,7.77-4.85,24-11.22,25.88C332.14,100,335.72,91.69,339.31,83.42Z" transform="translate(-106 -82.67)"/><path d="M1338.57,475.52l10.77-24.79,2.64,1.16c-2.37,8.83-5,17.52-10.71,24.93Z" transform="translate(-106 -82.67)"/><path d="M846.93,360c-2.32,8.86-5,17.57-10.69,25l-2.62-1.14q5.34-12.48,10.69-25Z" transform="translate(-106 -82.67)"/><path d="M558.09,567.34q5.4-12.39,10.78-24.79l2.59,1.15c-2.29,8.87-5,17.56-10.67,25Z" transform="translate(-106 -82.67)"/><path d="M755.15,360.06c-2.37,8.82-5,17.51-10.71,24.93l-2.6-1.11q5.31-12.5,10.63-25Z" transform="translate(-106 -82.67)"/><path d="M1259.45,451.68c-.42,8.76-6.91,22.87-13.21,25.26,4.1-9.6,7.65-17.88,11.19-26.17Z" transform="translate(-106 -82.67)"/><path d="M663.33,360.06c-2.37,8.82-5.05,17.51-10.71,24.93l-2.6-1.11q5.31-12.5,10.63-25Z" transform="translate(-106 -82.67)"/><path d="M649.92,567.36l10.77-24.79,2.64,1.16c-2.37,8.82-5.05,17.51-10.71,24.93Z" transform="translate(-106 -82.67)"/><path d="M557.63,384.85c4.06-9.39,7.64-17.66,11.22-25.92C571.3,366.55,564,382.86,557.63,384.85Z" transform="translate(-106 -82.67)"/><path d="M1154.48,476.58l11.21-25.83C1168.06,458.66,1160.8,474.79,1154.48,476.58Z" transform="translate(-106 -82.67)"/><path d="M468.18,384.57c1.21-9.43,4.45-17.86,10.43-25A46.07,46.07,0,0,1,468.18,384.57Z" transform="translate(-106 -82.67)"/><path d="M741.1,568.72l11.57-26.89C755.78,547.89,748.23,566.21,741.1,568.72Z" transform="translate(-106 -82.67)"/><path d="M374,384.87c4.06-9.39,7.63-17.67,11.21-25.94C387.68,366.49,380.42,382.83,374,384.87Z" transform="translate(-106 -82.67)"/><path d="M1063.1,475.5l10.78-24.78,2.52,1.12A80.22,80.22,0,0,1,1066.2,477Z" transform="translate(-106 -82.67)"/><path d="M296,360.07c-2.45,8.8-4.93,17.6-10.74,24.9l-2.54-1.1L293.26,359Z" transform="translate(-106 -82.67)"/><path d="M847,543.85c-2.47,8.77-5.17,17.44-10.57,24.86l-2.81-1.26,10.65-24.85Z" transform="translate(-106 -82.67)"/><path d="M190.82,383.69l10.77-24.79,2.49,1.1a79.54,79.54,0,0,1-10.14,25.17Z" transform="translate(-106 -82.67)"/><path d="M971.27,475.44,982,450.78C984.71,457.51,977.52,474.29,971.27,475.44Z" transform="translate(-106 -82.67)"/><path d="M420.37,108.13l10.71-24.68C433.83,90,426.66,106.87,420.37,108.13Z" transform="translate(-106 -82.67)"/><path d="M190.81,751q5.37-12.33,10.73-24.67C204.27,732.89,197.09,749.72,190.81,751Z" transform="translate(-106 -82.67)"/><path d="M281.94,752.39c4.27-9.74,7.85-17.94,11.44-26.14C295.94,733.55,288.7,750,281.94,752.39Z" transform="translate(-106 -82.67)"/><path d="M373.76,752.39c4.26-9.72,7.85-17.92,11.43-26.12C387.76,733.55,380.52,750,373.76,752.39Z" transform="translate(-106 -82.67)"/><path d="M479.64,727.37c-2.27,8.87-5,17.54-10.66,25l-2.61-1.13,10.64-25Z" transform="translate(-106 -82.67)"/><path d="M558.09,751l10.79-24.78,2.6,1.16c-2.35,8.85-5,17.57-10.7,25Z" transform="translate(-106 -82.67)"/><path d="M649.91,751q5.4-12.39,10.78-24.78l2.58,1.13c-2.27,8.88-5,17.55-10.66,25Z" transform="translate(-106 -82.67)"/><path d="M755.15,727.51c-2.43,8.79-5.19,17.43-10.54,24.88l-2.82-1.26q5.31-12.43,10.64-24.86Z" transform="translate(-106 -82.67)"/><path d="M833.54,750.93q5.37-12.33,10.76-24.66C847,733.14,839.75,749.84,833.54,750.93Z" transform="translate(-106 -82.67)"/><path d="M938.61,727.43c-1.84,9.06-5.6,17.24-10,25.14l-3.23-1.45q5.31-12.42,10.64-24.85Z" transform="translate(-106 -82.67)"/><path d="M1016.72,752.2l11.22-25.94C1030.42,733.83,1023.16,750.16,1016.72,752.2Z" transform="translate(-106 -82.67)"/><path d="M1122.41,727.46c-2.38,8.82-5.21,17.44-10.48,24.95l-2.84-1.25q5.29-12.43,10.58-24.88Z" transform="translate(-106 -82.67)"/><path d="M1200.83,751q5.39-12.39,10.79-24.78l2.53,1.13a80.31,80.31,0,0,1-10.24,25.16Z" transform="translate(-106 -82.67)"/><path d="M1306,727.4c-2.4,8.82-5,17.56-10.66,24.93l-2.62-1.12,10.53-24.93Z" transform="translate(-106 -82.67)"/><path d="M1383.75,752.52c4.29-9.83,7.88-18,11.46-26.26C1397.84,733.28,1390.63,749.9,1383.75,752.52Z" transform="translate(-106 -82.67)"/><path d="M1487,726.25c2.49,7.54-4.77,23.9-11.22,26Z" transform="translate(-106 -82.67)"/><path d="M1581.5,727.43c-2.36,8.84-5.16,17.48-10.53,25l-2.77-1.21,10.56-24.89Z" transform="translate(-106 -82.67)"/><path d="M1660,751l11.29-26.27C1673.52,732.41,1666.48,749.36,1660,751Z" transform="translate(-106 -82.67)"/><path d="M924.91,568.51l11.22-25.92C938.58,550.23,931.32,566.52,924.91,568.51Z" transform="translate(-106 -82.67)"/><path d="M925,384.71l11.19-25.8C938.47,366.94,931.21,383,925,384.71Z" transform="translate(-106 -82.67)"/><path d="M879.44,475.44l10.76-24.65C892.87,457.62,885.67,474.33,879.44,475.44Z" transform="translate(-106 -82.67)"/><path d="M1122.28,176.33a79.56,79.56,0,0,1-10.15,25.17l-3-1.3q5.31-12.48,10.63-24.95Z" transform="translate(-106 -82.67)"/><path d="M1016.72,568.54l11.22-25.95C1030.42,550.16,1023.16,566.5,1016.72,568.54Z" transform="translate(-106 -82.67)"/><path d="M1705.42,292.84c4-9.24,7.61-17.51,11.19-25.77l1.62.72C1718.91,275.2,1711.64,291.21,1705.42,292.84Z" transform="translate(-106 -82.67)"/><path d="M798.41,450.74c2.33,8-4.93,24.1-11.19,25.8C791.24,467.27,794.83,459,798.41,450.74Z" transform="translate(-106 -82.67)"/><path d="M1627.44,268.34c-2.44,8.79-5.19,17.43-10.54,24.88l-2.82-1.26,10.63-24.85Z" transform="translate(-106 -82.67)"/><path d="M1109,567.29q5.37-12.33,10.72-24.67C1122.48,549.18,1115.31,566,1109,567.29Z" transform="translate(-106 -82.67)"/><path d="M1522.21,291.81l10.7-24.68C1535.71,273.53,1528.58,290.43,1522.21,291.81Z" transform="translate(-106 -82.67)"/><path d="M709.23,451.89c-2.36,8.83-5,17.52-10.7,24.93l-2.6-1.12q5.31-12.48,10.63-25Z" transform="translate(-106 -82.67)"/><path d="M1430.37,291.83l10.8-24.8,2.53,1.14a80.5,80.5,0,0,1-10.24,25.17Z" transform="translate(-106 -82.67)"/><path d="M1200.11,568.85l11.46-26.25C1214.2,549.61,1207,566.24,1200.11,568.85Z" transform="translate(-106 -82.67)"/><path d="M1338.55,291.77q5.37-12.33,10.76-24.66C1352,274,1344.77,290.67,1338.55,291.77Z" transform="translate(-106 -82.67)"/><path d="M617.38,451.89c-2.39,8.83-5,17.56-10.65,24.95l-2.62-1.13,10.52-24.92Z" transform="translate(-106 -82.67)"/><path d="M1260.16,268.22c-2.37,8.83-5.05,17.52-10.71,24.94l-2.6-1.12,10.63-25Z" transform="translate(-106 -82.67)"/><path d="M1303.39,542.59c2.5,7.5-4.75,23.88-11.21,26Z" transform="translate(-106 -82.67)"/><path d="M1168.31,268.2c-2.37,8.85-5.09,17.55-10.6,25l-2.67-1.15q5.24-12.46,10.49-24.93Z" transform="translate(-106 -82.67)"/><path d="M512.18,475.45q5.37-12.33,10.73-24.67C525.63,457.44,518.45,474.25,512.18,475.45Z" transform="translate(-106 -82.67)"/><path d="M1073.86,267.09c2.41,7.77-4.85,24-11.21,25.88Z" transform="translate(-106 -82.67)"/><path d="M1384,568.37c4-9.26,7.61-17.53,11.2-25.79C1397.57,550.61,1390.31,566.67,1384,568.37Z" transform="translate(-106 -82.67)"/><path d="M971.28,291.79q5.37-12.33,10.72-24.67C984.74,273.72,977.56,290.56,971.28,291.79Z" transform="translate(-106 -82.67)"/><path d="M431.11,450.75c2.49,7.54-4.77,23.9-11.22,26Z" transform="translate(-106 -82.67)"/><path d="M890.23,267.09c2.41,7.75-4.85,24-11.22,25.88C883.06,283.62,886.64,275.35,890.23,267.09Z" transform="translate(-106 -82.67)"/><path d="M1487,542.59c2.5,7.5-4.75,23.88-11.21,26Z" transform="translate(-106 -82.67)"/><path d="M798.38,267.09c2.51,7.5-4.75,23.88-11.21,26Z" transform="translate(-106 -82.67)"/><path d="M339.28,450.76c2.51,7.5-4.75,23.87-11.21,26Z" transform="translate(-106 -82.67)"/><path d="M695.82,291.84q5.4-12.39,10.78-24.79l2.59,1.15c-2.29,8.87-5,17.56-10.67,25Z" transform="translate(-106 -82.67)"/><path d="M1567.39,568.85l11.46-26.25C1581.48,549.61,1574.27,566.24,1567.39,568.85Z" transform="translate(-106 -82.67)"/><path d="M617.41,268.29c-2.39,8.83-5.22,17.45-10.49,25L604.08,292l10.59-24.88Z" transform="translate(-106 -82.67)"/><path d="M250.09,451.86c-2.29,8.88-5,17.56-10.67,25l-2.61-1.13q5.33-12.48,10.66-25Z" transform="translate(-106 -82.67)"/><path d="M525.56,268.26c-2.2,8.91-5.34,17.4-10.37,25L512.27,292l10.56-24.9Z" transform="translate(-106 -82.67)"/><path d="M1672.64,543.51c-.42,8.77-6.92,22.87-13.21,25.26,4.1-9.6,7.65-17.88,11.19-26.16Z" transform="translate(-106 -82.67)"/><path d="M432.85,268c-1.49,9.34-4.49,17.82-10.73,24.81C423.6,283.51,426.33,274.81,432.85,268Z" transform="translate(-106 -82.67)"/><path d="M144.19,660.65l11.46-26.22C158.26,641.52,151,658.11,144.19,660.65Z" transform="translate(-106 -82.67)"/><path d="M144.91,842.84l10.77-24.78,2.58,1.14c-2.27,8.87-5,17.54-10.66,25Z" transform="translate(-106 -82.67)"/><path d="M238.55,843.7c1.62-9.24,4.15-18,10.66-24.91A46.71,46.71,0,0,1,238.55,843.7Z" transform="translate(-106 -82.67)"/><path d="M328.08,844c4.06-9.4,7.63-17.67,11.21-25.94C341.77,825.66,334.51,842,328.08,844Z" transform="translate(-106 -82.67)"/><path d="M433.75,819.2c-2.36,8.85-5.08,17.55-10.6,25l-2.67-1.15L431,818.13Z" transform="translate(-106 -82.67)"/><path d="M511.77,843.83,523,818.07l1.62.72C525.25,826.2,518,842.21,511.77,843.83Z" transform="translate(-106 -82.67)"/><path d="M617.36,819.2c-2.28,8.87-5,17.55-10.66,25L604.09,843q5.32-12.48,10.66-25Z" transform="translate(-106 -82.67)"/><path d="M709.09,819.16c-1.79,9.07-5.54,17.3-10.06,25.21l-3.1-1.33q5.31-12.48,10.63-25Z" transform="translate(-106 -82.67)"/><path d="M787.64,842.79l10.73-24.68C801.1,824.72,793.92,841.56,787.64,842.79Z" transform="translate(-106 -82.67)"/><path d="M892.76,819.17a85.72,85.72,0,0,1-10.09,25.22L879.53,843l10.69-25Z" transform="translate(-106 -82.67)"/><path d="M971.32,842.84l11.29-26.27C984.87,824.24,977.83,841.2,971.32,842.84Z" transform="translate(-106 -82.67)"/><path d="M1062.37,844.39c4.3-9.85,7.89-18.07,11.47-26.29C1076.49,825,1069.29,841.7,1062.37,844.39Z" transform="translate(-106 -82.67)"/><path d="M1168.3,819.22c-2.39,8.84-5,17.56-10.64,25L1155,843l10.52-24.92Z" transform="translate(-106 -82.67)"/><path d="M1257.48,818.09c2.49,7.55-4.77,23.9-11.21,25.95C1250.34,834.63,1253.91,826.36,1257.48,818.09Z" transform="translate(-106 -82.67)"/><path d="M1352,819.26c-2.36,8.84-5.16,17.48-10.53,25l-2.77-1.21,10.56-24.9Z" transform="translate(-106 -82.67)"/><path d="M1430.39,842.86l10.77-24.79,2.66,1.17c-2.41,8.8-5.08,17.5-10.72,24.92Z" transform="translate(-106 -82.67)"/><path d="M1521.49,844.32c4.28-9.8,7.87-18,11.45-26.23C1535.55,825.19,1528.34,841.78,1521.49,844.32Z" transform="translate(-106 -82.67)"/><path d="M1624.78,818.09c2.42,7.75-4.84,24-11.21,25.88Z" transform="translate(-106 -82.67)"/><path d="M1719.23,819.24c-2.45,8.8-4.93,17.59-10.75,24.9l-2.54-1.1,10.53-24.92Z" transform="translate(-106 -82.67)"/><path d="M339.31,267.08c2.33,8-4.93,24.1-11.19,25.79Z" transform="translate(-106 -82.67)"/><path d="M250,635.6c-1.85,9.06-5.6,17.24-10,25.14l-3.23-1.45q5.31-12.43,10.64-24.85Z" transform="translate(-106 -82.67)"/><path d="M236.74,291.82l10.68-24.69C250.25,273.44,243.14,290.37,236.74,291.82Z" transform="translate(-106 -82.67)"/><path d="M328.54,659.18q5.4-12.39,10.79-24.79l2.5,1.11a80.31,80.31,0,0,1-10.17,25.17Z" transform="translate(-106 -82.67)"/><path d="M157.61,268c-.41,8.76-6.91,22.86-13.21,25.25,4.11-9.59,7.65-17.88,11.2-26.16Z" transform="translate(-106 -82.67)"/><path d="M433.75,635.57c-2.45,8.8-4.93,17.59-10.74,24.9l-2.54-1.1q5.26-12.45,10.52-24.92Z" transform="translate(-106 -82.67)"/><path d="M1660,200l10.68-24.69C1673.45,181.65,1666.33,198.57,1660,200Z" transform="translate(-106 -82.67)"/><path d="M525.59,635.63c-2.39,8.82-5.22,17.44-10.49,25l-2.84-1.25,10.59-24.88Z" transform="translate(-106 -82.67)"/><path d="M1568.12,200l10.7-24.69C1581.62,181.7,1574.48,198.6,1568.12,200Z" transform="translate(-106 -82.67)"/><path d="M604,659.12q5.37-12.35,10.73-24.67C617.45,641.1,610.27,657.91,604,659.12Z" transform="translate(-106 -82.67)"/><path d="M1489.72,176.52c-2.47,8.77-5.18,17.43-10.57,24.86l-2.81-1.26L1487,175.27Z" transform="translate(-106 -82.67)"/><path d="M709.12,635.5a80,80,0,0,1-10.2,25.17l-3-1.3q5.33-12.5,10.66-25Z" transform="translate(-106 -82.67)"/><path d="M1384.47,200q5.38-12.39,10.78-24.79l2.58,1.15c-2.27,8.87-5,17.54-10.66,25Z" transform="translate(-106 -82.67)"/><path d="M787.23,660.17l11.19-25.76,1.62.72C800.71,642.53,793.45,658.55,787.23,660.17Z" transform="translate(-106 -82.67)"/><path d="M1292.64,199.94l10.75-24.66C1306.08,182,1298.89,198.79,1292.64,199.94Z" transform="translate(-106 -82.67)"/><path d="M892.87,635.63c-2.39,8.82-5.22,17.44-10.49,25l-2.84-1.25,10.59-24.88Z" transform="translate(-106 -82.67)"/><path d="M1213.23,176.09c-1.79,9.19-3.81,18.14-10.83,24.76C1203.85,191.58,1207.18,183.15,1213.23,176.09Z" transform="translate(-106 -82.67)"/><path d="M984.71,635.66c-2.49,8.77-5.22,17.43-10.51,24.92l-2.85-1.27L982,634.44Z" transform="translate(-106 -82.67)"/><path d="M1016.72,201.2l11.22-25.94C1030.42,182.83,1023.16,199.16,1016.72,201.2Z" transform="translate(-106 -82.67)"/><path d="M1073.85,634.42c2.49,7.54-4.77,23.9-11.22,26C1066.7,651,1070.27,642.69,1073.85,634.42Z" transform="translate(-106 -82.67)"/><path d="M924.64,201.56c4.3-9.85,7.89-18.07,11.47-26.29C938.76,182.21,931.56,198.87,924.64,201.56Z" transform="translate(-106 -82.67)"/><path d="M1154.93,659.14q5.35-12.33,10.7-24.68C1168.43,640.86,1161.3,657.76,1154.93,659.14Z" transform="translate(-106 -82.67)"/><path d="M833.08,201.2l11.22-25.94C846.78,182.83,839.52,199.16,833.08,201.2Z" transform="translate(-106 -82.67)"/><path d="M1246.32,660.17c4-9.24,7.61-17.5,11.19-25.76l1.63.72C1259.81,642.53,1252.54,658.55,1246.32,660.17Z" transform="translate(-106 -82.67)"/><path d="M741.73,200q5.37-12.35,10.72-24.68C755.2,181.85,748,198.7,741.73,200Z" transform="translate(-106 -82.67)"/><path d="M1351.12,635.33c-1.95,9.12-4,18.06-11,24.66C1341.8,650.84,1344.52,642.15,1351.12,635.33Z" transform="translate(-106 -82.67)"/><path d="M649.92,200l10.77-24.78,2.64,1.16c-2.37,8.82-5.05,17.51-10.71,24.92Z" transform="translate(-106 -82.67)"/><path d="M1441.13,634.42c2.48,7.56-4.78,23.9-11.22,26C1434,651,1437.55,642.69,1441.13,634.42Z" transform="translate(-106 -82.67)"/><path d="M568.83,175.26c2.52,7.44-4.73,23.85-11.21,26C561.69,191.81,565.26,183.54,568.83,175.26Z" transform="translate(-106 -82.67)"/><path d="M1521.77,660.21c4-9.27,7.61-17.54,11.2-25.8C1535.3,642.44,1528,658.5,1521.77,660.21Z" transform="translate(-106 -82.67)"/><path d="M467.88,200.77c1.84-9.14,4.37-17.9,10.92-24.8C477.3,185.22,474.6,193.92,467.88,200.77Z" transform="translate(-106 -82.67)"/><path d="M1614,659.14q5.35-12.33,10.7-24.68C1627.53,640.86,1620.39,657.76,1614,659.14Z" transform="translate(-106 -82.67)"/><path d="M387.88,176.39c-2.38,8.82-5.06,17.52-10.72,24.93l-2.6-1.11,10.63-25Z" transform="translate(-106 -82.67)"/><path d="M1719.18,635.51a80.36,80.36,0,0,1-10.27,25.15l-3-1.26,10.5-24.94Z" transform="translate(-106 -82.67)"/><path d="M282.64,200l10.77-24.78,2.64,1.16c-2.37,8.82-5.05,17.51-10.71,24.92Z" transform="translate(-106 -82.67)"/><path d="M144.19,477l11.46-26.22C158.26,457.86,151,474.44,144.19,477Z" transform="translate(-106 -82.67)"/><path d="M204.23,911.06c-2.36,8.82-5,17.51-10.71,24.93l-2.6-1.12,10.63-25Z" transform="translate(-106 -82.67)"/><path d="M296.06,911.19c-2.47,8.77-5.17,17.43-10.57,24.85l-2.8-1.25q5.31-12.43,10.64-24.85Z" transform="translate(-106 -82.67)"/><path d="M387.82,911c-2.29,8.87-5,17.56-10.67,25l-2.61-1.12q5.32-12.5,10.66-25Z" transform="translate(-106 -82.67)"/><path d="M479.68,911.06c-2.35,8.82-5,17.51-10.7,24.93l-2.6-1.12q5.31-12.48,10.63-25Z" transform="translate(-106 -82.67)"/><path d="M571.47,911.05c-2.39,8.84-5,17.57-10.65,25l-2.62-1.13q5.25-12.46,10.52-24.92Z" transform="translate(-106 -82.67)"/><path d="M662.33,910.63c.56,6.8-6.06,22.25-12.31,24.25q5.31-12.5,10.63-25Z" transform="translate(-106 -82.67)"/><path d="M755.11,911.05c-2.39,8.84-5,17.57-10.64,25l-2.63-1.14q5.25-12.45,10.52-24.91Z" transform="translate(-106 -82.67)"/><path d="M846.87,911a80,80,0,0,1-10.24,25.17l-3-1.31q5.34-12.48,10.69-25Z" transform="translate(-106 -82.67)"/><path d="M925.38,934.69l10.77-24.79,2.66,1.17c-2.41,8.81-5.08,17.5-10.72,24.92Z" transform="translate(-106 -82.67)"/><path d="M1030.51,911a80,80,0,0,1-10.24,25.17l-3-1.31q5.34-12.48,10.69-25Z" transform="translate(-106 -82.67)"/><path d="M1110.72,935.49c1.4-9.35,4.65-17.77,10.66-24.92C1120.05,919.89,1117.29,928.57,1110.72,935.49Z" transform="translate(-106 -82.67)"/><path d="M1200.87,934.68l11.29-26.27C1214.42,916.08,1207.38,933,1200.87,934.68Z" transform="translate(-106 -82.67)"/><path d="M1292.23,935.67c4-9.24,7.6-17.5,11.19-25.77l1.63.73C1305.72,918,1298.45,934.05,1292.23,935.67Z" transform="translate(-106 -82.67)"/><path d="M1384.18,935.07l11-25.14C1398,917.62,1390.12,934.68,1384.18,935.07Z" transform="translate(-106 -82.67)"/><path d="M1475.83,935.84c4.06-9.38,7.64-17.65,11.21-25.92C1489.5,917.56,1482.24,933.86,1475.83,935.84Z" transform="translate(-106 -82.67)"/><path d="M1567.67,935.75c4-9.3,7.62-17.57,11.21-25.83C1581.25,917.82,1574,934,1567.67,935.75Z" transform="translate(-106 -82.67)"/><path d="M1670.7,909.91c2.33,8-4.93,24.1-11.2,25.79C1663.53,926.44,1667.11,918.17,1670.7,909.91Z" transform="translate(-106 -82.67)"/><path d="M201.58,175.24c2.33,8-4.93,24.1-11.19,25.8C194.41,191.77,198,183.51,201.58,175.24Z" transform="translate(-106 -82.67)"/><path d="M1660,383.68l11.29-26.27C1673.52,365.08,1666.48,382,1660,383.68Z" transform="translate(-106 -82.67)"/><path d="M1719.27,452c-2.49,8.77-5.23,17.42-10.51,24.91l-2.86-1.26,10.62-24.87Z" transform="translate(-106 -82.67)"/><path d="M1719.26,84.68c-2.45,8.78-5.18,17.44-10.55,24.87l-2.82-1.26,10.65-24.85Z" transform="translate(-106 -82.67)"/><path d="M1567.39,385.19c4.29-9.83,7.88-18,11.46-26.26C1581.48,366,1574.27,382.57,1567.39,385.19Z" transform="translate(-106 -82.67)"/><path d="M1627.4,84.55c-2.35,8.85-5.1,17.53-10.56,25l-2.71-1.16,10.5-24.93Z" transform="translate(-106 -82.67)"/><path d="M190.83,567.31l10.69-24.68C204.33,549,197.21,565.9,190.83,567.31Z" transform="translate(-106 -82.67)"/><path d="M1521.57,109.55l11.56-26.88C1536.25,88.72,1528.7,107,1521.57,109.55Z" transform="translate(-106 -82.67)"/><path d="M1476.29,383.62q5.36-12.35,10.73-24.67C1489.74,365.6,1482.55,382.41,1476.29,383.62Z" transform="translate(-106 -82.67)"/><path d="M1432.21,109c1.62-9.23,4.15-18,10.65-24.91A46.63,46.63,0,0,1,1432.21,109Z" transform="translate(-106 -82.67)"/><path d="M1613.33,476.89l11.44-26.14C1627.32,458.05,1620.09,474.53,1613.33,476.89Z" transform="translate(-106 -82.67)"/><path d="M1351.91,84.54a85.82,85.82,0,0,1-10.17,25.17l-3.08-1.33,10.52-24.92Z" transform="translate(-106 -82.67)"/><path d="M1384.49,383.65,1395.17,359C1398,365.31,1390.87,382.23,1384.49,383.65Z" transform="translate(-106 -82.67)"/><path d="M1260.11,84.53c-2.32,8.86-5,17.57-10.68,25l-2.62-1.14,10.68-25Z" transform="translate(-106 -82.67)"/><path d="M282,568.72l11.57-26.89C296.68,547.89,289.13,566.21,282,568.72Z" transform="translate(-106 -82.67)"/><path d="M1154.92,108.13l10.72-24.68C1168.39,90,1161.22,106.87,1154.92,108.13Z" transform="translate(-106 -82.67)"/><path d="M1292.23,384.67c4-9.24,7.61-17.5,11.19-25.76l1.63.72C1305.72,367,1298.45,383.05,1292.23,384.67Z" transform="translate(-106 -82.67)"/><path d="M1062.69,109.17l11.19-25.77,1.62.73C1076.17,91.54,1068.9,107.55,1062.69,109.17Z" transform="translate(-106 -82.67)"/><path d="M1521.76,476.58,1533,450.75C1535.34,458.66,1528.08,474.79,1521.76,476.58Z" transform="translate(-106 -82.67)"/><path d="M982.06,83.41c2.37,7.88-4.89,24-11.22,25.85Z" transform="translate(-106 -82.67)"/><path d="M1200.84,383.65l10.7-24.69C1214.34,365.36,1207.21,382.26,1200.84,383.65Z" transform="translate(-106 -82.67)"/><path d="M879.46,108.13q5.37-12.34,10.72-24.68C892.93,90,885.76,106.87,879.46,108.13Z" transform="translate(-106 -82.67)"/><path d="M385.23,542.58c2.37,7.87-4.89,24-11.22,25.84Z" transform="translate(-106 -82.67)"/><path d="M789.25,108.94c1.84-9.14,4.37-17.91,10.92-24.8C798.66,93.38,796,102.09,789.25,108.94Z" transform="translate(-106 -82.67)"/><path d="M1109,383.69l10.77-24.79,2.66,1.17c-2.41,8.81-5.08,17.5-10.72,24.92Z" transform="translate(-106 -82.67)"/><path d="M709.18,84.54c-2.27,8.87-5,17.53-10.65,24.95l-2.61-1.12,10.64-25Z" transform="translate(-106 -82.67)"/><path d="M1443.74,451.86c-2.28,8.88-5,17.56-10.67,25l-2.61-1.13q5.34-12.48,10.66-25Z" transform="translate(-106 -82.67)"/><path d="M614.78,83.41c2.37,7.88-4.89,24-11.22,25.85Z" transform="translate(-106 -82.67)"/><path d="M1016.46,385.22l11.47-26.28C1030.58,365.87,1023.38,382.54,1016.46,385.22Z" transform="translate(-106 -82.67)"/><path d="M523,83.41c2.37,7.88-4.89,24-11.22,25.85Z" transform="translate(-106 -82.67)"/><path d="M477.05,542.57c2.37,7.88-4.89,24-11.22,25.85Z" transform="translate(-106 -82.67)"/></svg>