<svg id="Layer_1" data-name="Layer 1" xmlns="http://www.w3.org/2000/svg" viewBox="0 0 1857.53 538.37"><defs><style>.cls-1{fill:#d7d6d8;}.cls-2{fill:#bfbfbf;}.cls-3{fill:#d21a1a;}.cls-4{fill:#f9f9f9;}.cls-5{fill:#f8f8f8;}.cls-6{fill:#fafafa;}.cls-7{fill:#f32c2c;}.cls-8{fill:#1e1c1c;}.cls-9{fill:#2f2f2f;}.cls-10{fill:#303030;}.cls-11{fill:#323232;}.cls-12{fill:#333;}.cls-13{fill:#313131;}.cls-14{fill:#010000;}.cls-15{fill:#020202;}.cls-16{fill:#030303;}.cls-17{fill:#040404;}.cls-18{fill:#d9d1d3;}.cls-19{fill:#f6f6f6;}</style></defs><path d="M50.09,820.71V282.46h1735.1a18.23,18.23,0,0,1-.76,2c-11.1,19.72-22.25,39.42-33.22,59.23-.69,1.24.09,3.3.18,5-.72.05-1.6.39-2.12.1-1.39-.78-2.49-2.22-3.93-2.71a181,181,0,0,0-47.57-9.06,256.45,256.45,0,0,0-40.73.91,235.12,235.12,0,0,0-39.31,7.33c-45.82,12.83-83.92,38.1-114.57,74.3-17.75,21-30.59,44.87-39.6,70.87-6.71,19.37-10.25,39.34-11.72,59.62-.75,10.28-.06,20.74.86,31,1,11.11,2.13,22.33,4.71,33.15q16.27,68.07,67.87,115.74c2,1.86,3.71,4.09,5.55,6.15-4,6.91-8.14,13.77-12,20.74q-16.59,29.63-33,59.34c-1.85,3.36-4,4.68-8.12,4.67Q763.87,820.64,50.09,820.71Zm687.79-114v4.81c0,12,.08,23.92,0,35.88,0,8.36-2.64,10.93-11.06,11.07q-9,.15-18,0c-8.65-.16-11.06-2.65-11.21-11.42-.07-4.14,0-8.28,0-12.42q-.12-75.87-.21-151.76c0-8.62,2.87-11.66,11.45-11.9,5.68-.17,11.36-.14,17,0,8.59.19,11.42,3.09,11.51,11.82.13,12.26.15,24.53.24,36.79,0,1.46.15,2.93.23,4.46h60.49c0-18.91,0-37.58,0-56.25a25.26,25.26,0,0,0-1.06-6.31c-5.14-18.9-18.76-30.6-39.92-31.34-26.94-.95-54-1.16-80.91,0-25.74,1.15-40.86,18.17-40.89,44q-.12,90.82.33,181.65c0,9.63,2.21,18.84,8,26.81,8.7,11.89,21.37,16.47,35.21,17,21.91.85,43.86.68,65.79.63a114.43,114.43,0,0,0,19.2-1.74c21-3.66,33.83-17.71,34.66-39,.68-17.14.15-34.33.13-51.49,0-.39-.33-.79-.54-1.26ZM275.69,497.92c11.74-8.45,14.11-20.24,13.9-33.2-.2-12.72,0-25.44,0-38.17,0-32,.09-64.07-.06-96.1-.09-18.1-9.46-30.92-27.37-32.29a492.2,492.2,0,0,0-71.12-.28c-17.48,1.2-26.06,11.93-28.24,28.8a52.72,52.72,0,0,0-.29,6.89q0,66.21,0,132.44c0,23.83,11.37,35.94,35.32,37.31,8.26.47,16.57.42,24.84.13a10.4,10.4,0,0,1,9.37,4.36c4.9,6.09,10.22,11.84,15.15,17.9a8.12,8.12,0,0,0,7.1,3.17c14.26-.15,28.53-.06,42.8-.07,1.45,0,2.9-.14,5.32-.27ZM889.74,800.05h46.35c1.21-3.54-.36-4.81-3.59-5.33a26.28,26.28,0,0,1-7.87-2.37c-1.68-.86-3.9-2.78-4-4.3-.37-9.1-.18-18.22-.18-27.14,4.32.9,8.76,2.45,13.26,2.65,20.24.9,41.88-16.38,46.11-37.57a80.89,80.89,0,0,0,.83-25c-1.59-13.25-8.77-22.92-22.2-27-12.5-3.79-22.92-.75-31.36,9.22-2,2.34-4.2,4.5-6.3,6.74-.51-4.24,0-7.87.2-11.53.08-1.33-.14-3.28-1-3.92s-2.77-.25-4,.22c-7.43,2.8-14.71,6-22.23,8.52-3.34,1.1-4.53,2.39-3.32,6,2.76-.22,5.51-.32,8.22-.67,3.87-.51,5.79,1.13,6,4.94.09,1.69.2,3.37.2,5.06,0,27.13.14,54.27.07,81.4,0,11.94-.16,12.12-11.59,14.78C890.07,795.49,888.8,796.7,889.74,800.05Zm105.84-42.74c.07,1.51.13,2.93.19,4.09H1039c.86-3.09-.06-5-3.66-5.43-1.49-.17-2.89-1-4.38-1.31-4.14-.75-6-3.21-6-7.33-.1-12.24-.59-24.5-.29-36.73.27-10.35,5.12-18.08,15.26-21.83,12.21-4.52,22.69,3,22.59,13.54-.14,15.45-.2,30.91-.42,46.37,0,3.06-1.82,5-5,5.8-2.93.73-5.8,1.73-8.66,2.61v4.31h43.38c.76-3.12-.11-4.47-3.36-5.19-10.53-2.31-10.7-2.76-10.71-13.82,0-1.08,0-2.15,0-3.22-.27-15.32-.18-30.65-1-45.93-.49-9.46-6.54-15.92-15.73-18-10.46-2.34-20.1-.82-27.89,7.4-2.73,2.88-5.64,5.61-8.46,8.4l-1.21-.61q1-28.68,2-57.37c.14-3.78-.61-4.26-4.08-2.88-7.5,3-15,6.07-22.67,8.58-3.76,1.23-5.51,2.76-3.91,7.11,2.14-.25,4.38-.57,6.62-.76,5.23-.45,7.31,1.13,7.35,6.22.24,29.42.6,58.83.43,88.24C1009.14,752.89,1008.62,752.88,995.58,757.31ZM403,482c-3.49.35-6.53.73-9.58.95-3.21.23-5.34-1.17-5.84-4.48a33.59,33.59,0,0,1-.46-5.48c.29-19.29.57-38.59,1-57.88.06-2.92-.28-5-3.77-4.63-9.41.9-18.82,1.87-28.25,2.82v4.6l8.94.81c4.19.38,6.41,2.78,6.43,6.89.09,13.33.39,26.67-.05,40-.31,9.31-5.52,15.65-14.36,18.82-11.84,4.25-22.7-2.07-22.68-14.4,0-4.59-.73-9.18-.6-13.76.4-13.77,1-27.54,1.67-41.3.15-3.1-.68-4.79-4-4.46-9.42.94-18.84,1.93-28.43,2.91v4.43c2.32.28,4.57.57,6.82.83,6.59.77,7.9,2,8.46,8.52.35,4.12.66,8.25.69,12.38.11,12.11-.13,24.22.14,36.32.2,8.7,2.81,16.62,11.54,20.33,9.84,4.19,19.75,4.13,28.78-2.44,4-2.93,7.75-6.32,12.19-10-.41,4-.84,7.47-1.07,10.9s1.38,4.43,4.29,3.15c9.19-4,18.4-8,28.12-12.24Zm93.16-.79c-2.57,1.37-4.66,2.68-6.9,3.62-4.63,1.94-7.91.29-8.78-4.64A52.72,52.72,0,0,1,480,471c0-14.71.45-29.42,0-44.11-.3-9.84-6.16-16.08-15.76-18.36-10.38-2.45-20.29.08-30.27,2.83-7.3,2-11.76,5.38-11.05,13.72.25,2.92-.84,6-1.37,9.29l5.56.87c2.59-4.22,4.58-8.23,7.27-11.71,5.36-6.89,12.65-9,21-6.68,8.88,2.51,8.89,10.36,9.66,17.48.56,5.14-4.55,3.84-7,5.57-1.71,1.21-3.89,1.75-5.8,2.71-8.6,4.33-17.44,8.26-25.7,13.17-8.6,5.11-12.59,15.75-10.5,25.62,1.88,8.91,7.21,14.87,16.2,16.79A26.57,26.57,0,0,0,453,494.55c4.08-2.67,8-5.6,12.12-8.51.54,1.8.94,3.55,1.59,5.2,2.85,7.24,12.61,10.32,18.84,5.59,4.71-3.58,8.91-7.82,13.44-11.86ZM1120.7,709.55c2.29-.12,3.19-.19,4.08-.2q21.63-.45,43.25-.88c3.25-.06,9.61-4.24,10-6.57,1.59-10.82-6.14-23.89-16.84-27.36-12.65-4.1-24.82-2.53-36,4.86-13.49,8.91-18.51,22.64-20.36,37.7-.6,4.9.86,10.13,1.76,15.14,4.13,22.75,23.83,36.58,45,29.92,9.75-3.07,18.23-10.18,27.56-15.62l-3.74-5.46c-6.63,2.82-12.74,6.09-19.26,8.06-14.91,4.49-26.32-1.31-31-16.09C1122.76,725.72,1122.18,717.83,1120.7,709.55Zm145.94,49.53c4,1.12,7.61,2.36,11.33,3.16,9.57,2.06,19.18,2.61,28.47-1.17,9.61-3.91,15.93-10.72,17.33-21.32s-3.47-18-12.14-23.33c-4.16-2.56-8.61-4.66-12.8-7.18-5-3-10.26-5.68-14.59-9.44-7.16-6.23-4.43-16.29,4.7-19,10.18-3,20.31,2.6,22.31,13.3,1,5.26,3.33,5.52,7.39,4.87.79-7.33,1.56-14.45,2.32-21.49-11.28-5.69-26.7-6.71-37.17-2.28-9.35,4-16,10.54-16.93,21-.89,9.82,5.16,15.92,12.93,20.52,4.87,2.89,10,5.3,14.86,8.22a65.13,65.13,0,0,1,10.81,7.66,14.35,14.35,0,0,1,3.37,16.07c-2.19,4.84-7.72,7.82-14.17,7.45-7.26-.43-13-3.56-16.28-10.2-1.68-3.38-2.9-7-4.36-10.57h-6C1267.55,743.32,1267.11,750.94,1266.64,759.08ZM627,483.9c-2.22.82-4.06,1.53-5.93,2.16-10.52,3.56-15.78.09-16.68-11-.19-2.44-.4-4.89-.37-7.34q.25-22.28.63-44.56a18,18,0,0,1,.42-2.62c5,.25,9.77.53,14.51.71,7.35.29,9.29-1.51,10.35-9.6h-25c.62-7.44,1.22-14.72,1.83-22-3.6-1.19-5.61-.38-7.26,3.16-4.53,9.74-10.78,18.08-20.67,23.24-1.24.64-1.57,3-2.69,5.4l13.84-.68v5c-.06,19.75-.35,39.49-.07,59.24.11,8,6.54,13.45,14.46,13.73,9.78.34,17.28-5,25.32-9.57Zm564.26,204.38c1.82-.2,3.33-.29,4.81-.54,8.65-1.46,10.27-.34,10.38,8.31.2,15,.19,30,.1,45.05-.07,11.71-.14,11.88-11.54,14.86-3.38.89-4.74,2.16-3.67,5.44h45.48v-4.21c-3.16-.9-6.06-1.85-9-2.54-4-.94-6.15-3.5-6.2-7.46-.16-12.23-.59-24.49,0-36.7.41-8.76,5.44-15.48,12.74-20.26,5-3.25,7.82-2.51,11.12,2.38,1.6,2.37,2.87,5.39,6.83,3.47q1.56-9.32,3.14-18.83c-17.66-7.46-25.08,6.37-35,17.46.68-6.81,1.21-12.23,1.76-17.64.37-3.62-1-4.93-3.85-3.74l-27,11.13ZM553.78,496.42c-.06-1.39-.12-2.74-.19-4.18a97,97,0,0,0-9.83-2.71c-4.23-.72-6.31-3.23-6.38-7.15-.2-12.39-.57-24.8,0-37.16.4-9.75,7.14-15.86,14.86-20.61,4.59-2.82,8.06-1.2,10.2,3.87.4.95.72,1.94,1.15,3.13l4.44-.23c1.09-6.62,2.13-12.9,3.15-19.12-9.42-3.74-15.89-2.26-22.82,4.54-3.92,3.84-8.27,7.25-11.94,10.42.46-4.45,1-9.93,1.57-15.41.27-2.74-.44-4.82-3.7-3.52-9,3.6-18,7.39-27.39,11.28,0,.77.14,2.2.25,3.88,2.43-.39,4.39-.74,6.35-1,6.64-.92,8.51.44,8.7,7.06.28,9.64.32,19.3.33,28.95,0,7.51-.24,15-.25,22.53,0,4.78-1.93,7.75-6.87,8.7a77.62,77.62,0,0,0-8.25,2.48v4.26ZM838,689.22h6.53c6.53,0,7.83.76,7.9,7.18q.27,25.94-.38,51.86c0,2-2.34,4.51-4.27,5.59-3,1.69-6.55,2.35-10,3.47v4.08h44c.25-4.22.25-4.22-3.45-5.38-10.67-3.34-10.67-3.34-11.2-14.57-.05-1.07-.12-2.14-.09-3.21.5-19.59,1-39.17,1.46-58.75,0-2.3-.7-4.62-1-6.68-9.32,3.81-17.55,7.45-26,10.46C838.37,684.35,836.93,685.44,838,689.22Zm22.32-40.56a9.28,9.28,0,0,0,9.46-9.58c0-5.78-4-9.85-9.71-9.76a9.67,9.67,0,0,0,.25,19.34Z" transform="translate(-50.09 -282.46)"/><path class="cls-1" d="M1751.39,348.63c4.11,1.7,8.18,3.5,12.34,5.06,4.63,1.73,9.39,3.08,14,4.9,2.15.85,4,2.48,6,3.64,9.8,5.57,19.69,11,29.37,16.73,2.76,1.64,4.81,4.44,7.36,6.49,4,3.21,8.24,6.1,12.15,9.41,1.28,1.08,1.59,3.23,2.74,4.54,2.23,2.51,4.82,4.69,7.11,7.14,4.86,5.23,9.32,10.86,14.5,15.74,6.47,6.09,9.68,14.28,14.8,21.2,2.25,3.06,4.82,5.89,7.13,8.92.91,1.19,2.14,2.64,2.11,4-.06,3.56.76,5.94,4,8.29,2.25,1.66,3.07,5.44,4.19,8.39,2.94,7.71,6,15.39,8.42,23.28,2.07,6.86,3.28,14,4.81,21,1.16,5.34,2.47,10.67,3.25,16.07.48,3.33-.14,6.81.16,10.18.24,2.77,1.54,5.48,1.62,8.23.24,7.5.32,15,0,22.52a158.71,158.71,0,0,1-1.85,19.48c-1.47,8.86-3.56,17.61-5.38,26.41-.9,1.24-2.13,2.35-2.65,3.73q-3.7,9.93-7.07,20c-1.23,3.69-2.15,7.48-3.21,11.22l-2.76,4.56c0,.31,0,.63,0,.94l-1.94,2.68-1.73,1.94c0,.58-.07,1.17-.1,1.75-3.21,5.29-6.44,10.57-9.55,15.91-.12.2.87,1.06,1.35,1.61q-1.38,2.78-2.75,5.55c-3.24.21-4.1,3-5.69,5.07-3.26,4.35-6.66,8.61-10.23,12.71-3.77,4.32-7.81,8.4-11.73,12.59l-12.91,12.84-1.89.91-3.66,3.67v0l-4.57,2.78-.93.91-11.06,7.35-.88.05-1.91,1.75-2.74,1.9-8.28,4.57-2.73.06-17.8,7c-19.76,7.82-38.41,19.08-60.48,19.76-11.61.36-23.24,1-34.82.5-12.9-.54-25.77-2.1-38.62-3.45a136,136,0,0,1-18.44-2.88c-9.38-2.33-18.6-5.34-27.88-8.06l-1.76-.11-9.23-3.69-.9.12-1,0h0c-.47-.92-.69-2.3-1.43-2.69-5.59-2.91-11.27-5.63-16.93-8.41-2.48-1.35-5-2.57-7.41-4.09-1.69-1.08-3-2.71-4.71-3.83-5.24-3.49-10.56-6.87-15.88-10.26a18.66,18.66,0,0,0-2.45-1.1c-1.84-2.06-3.53-4.29-5.55-6.15q-51.54-47.58-67.87-115.74c-2.58-10.82-3.73-22-4.71-33.15-.92-10.3-1.61-20.76-.86-31,1.47-20.28,5-40.25,11.72-59.62,9-26,21.85-49.91,39.6-70.87,30.65-36.2,68.75-61.47,114.57-74.3a235.12,235.12,0,0,1,39.31-7.33,256.45,256.45,0,0,1,40.73-.91,181,181,0,0,1,47.57,9.06c1.44.49,2.54,1.93,3.93,2.71C1749.79,349,1750.67,348.68,1751.39,348.63Zm-88,175.73c-.25-.15-.73-.31-.73-.46.17-12.95.45-25.9.49-38.86,0-1.89-.63-4.4-1.93-5.5a5.45,5.45,0,0,0-5.28,0c-1.3,1.06-1.85,3.53-2,5.43-.15,2.54.68,5.12.68,7.69q.09,34,0,68v5.61c-3-.47-5.38-1.24-7.69-1.07-1.75.13-4.12,1-4.92,2.35a5.71,5.71,0,0,0,.39,5.29c1,1.2,3.38,1.67,5.16,1.66,3,0,6-1.12,9-1,4.59.27,5.84-1.65,5.77-5.94-.19-12.26-.11-24.52,0-36.78a20.86,20.86,0,0,1,1-4.51c2.39,7.17,7.59,2.45,11.53,2.56,3.2.09,3.17-2.62,3.16-5,0-7.93,0-15.87,0-22.32,2.73-2.27,4.89-3.45,6-5.27.61-1,0-3.41-1-4.52-3.12-3.77-6.85-.23-10.29-.17-.78,0-2.1,3-2.15,4.67-.22,7.93-.1,15.87-.1,23.81l-1.17-1ZM1744.51,553c-3.93-3.57-7.87-7.13-11.77-10.74-.25-.24-.17-.89-.16-1.34.33-12,.77-24.1.92-36.15a7,7,0,0,0-2.15-5,5.37,5.37,0,0,0-4.95-.05,6,6,0,0,0-2.29,4.51c.1,6.68.74,13.36,1,20,.24,7-1.7,14.89.86,20.89,2.63,6.17,9.34,10.73,14.68,15.55a12.87,12.87,0,0,0,7.57,3c9,.36,18.1.14,27.16.14h6c-.58,10.52-1.24,20.25-1.53,30a6.76,6.76,0,0,0,2.37,4.93,5.18,5.18,0,0,0,4.94,0c1.3-1,2.09-3.24,2.22-5,.16-2.2-.85-4.46-.89-6.7-.12-8.43-.18-16.87,0-25.3.09-4-1.29-5.44-5.35-5.37-11,.2-22.09.07-33.14.07-2.61,0-5.2,0-5.57-3.51,2.9,0,5.8,0,8.71.05,14.66.27,29.32.64,44,.72a7.54,7.54,0,0,0,5.26-2.52c.8-1,.6-4-.32-4.87-1.26-1.22-3.61-1.68-5.53-1.76-2.21-.09-4.44.87-6.67.9-9.81.11-19.62.06-29.42,0a48.34,48.34,0,0,1-8.26-.2C1744.78,544,1742.9,545.79,1744.51,553Zm18.41-149.11c-1,2.19-3.31,4.68-2.86,6.51,1.8,7.38,8.36,1.42,12.36,3.58.76.41,4.57-2.31,4.58-3.6,0-2.15-1.91-4.3-3-6.46,2.55.32,5.13,1,7.66.86,1.91-.11,4.28-.76,5.49-2.06.87-.93.86-4,0-4.92-1.21-1.31-3.58-2-5.5-2.08-2.68-.12-5.39.79-8.09.81-12.74.1-25.47,0-38.2,0-6.27,0-6.79.16-6.27,6.52.49,6-1.15,10.5-5.85,14.39-1.67,1.38-2.63,4.35-2.79,6.68-.39,5.75-.13,11.56-.13,17.78-2.51-.22-4.54-.78-6.39-.43s-3.94,1.25-4.79,2.63a5.21,5.21,0,0,0,.52,4.94c1.12,1.18,3.45,1.66,5.24,1.63,2.67-.05,5.33-1.17,8-1.18,3.87,0,5.08-1.72,5-5.38-.2-6-.1-11.95,0-17.93a18.1,18.1,0,0,1,.54-3.32c2.76,1.2,5,2.91,7.17,3a107.75,107.75,0,0,0,16.84-.94c8-1.1,14.3,1.29,19,7.91,2,2.88,4.87,3.58,8.37,3.58,7.48,0,15,.55,22.43.79,3.35.11,5.3-1.59,5.18-5s-2.31-4.83-5.59-4.55c-4.07.35-8.16.59-12.19,1.24-8.34,1.35-14.91-1.25-19.78-8.18-1.85-2.62-4.43-3.3-7.6-3.21-6.9.21-13.81.15-20.71,0a31.66,31.66,0,0,1-5.42-.95c.25-4.65.47-8.52.7-12.71Zm-66.35,337.47c-6.33-7.25-11.82-13.57-17.52-20.1,6.62-4.8,9-11.44,9-18.93.09-30,.19-60.07,0-90.1-.09-13-7.21-20.77-20.23-21.58a347.15,347.15,0,0,0-39.5-.52c-16.8.88-23.5,8.68-23.52,25.37q-.06,42.06,0,84.12c0,16.7,8,24.86,24.67,25.33,6.12.17,13-1.49,18.11.88s8.25,8.76,12.39,13.27c1,1,2.45,2.15,3.72,2.17C1674.21,741.45,1684.75,741.37,1696.57,741.37Zm46.2-94.55h28.14c0-7.11,0-14,0-20.84-.11-13.9-6.5-21.26-20.41-22.07a308.32,308.32,0,0,0-33.58,0c-12.92.68-20.13,7.63-20.23,19.31q-.35,42.54,0,85.08c.08,10.34,6,17.68,16.34,18.4a340.77,340.77,0,0,0,41.3,0c7.67-.4,14.18-5,15.37-13,1.41-9.41,1.14-19.08,1.6-28.65h-28.54c0,4.18,0,8,0,11.83.06,12.35.86,11.7-11.79,11.62-5.65,0-6.58-1-6.59-6.77q0-33.57,0-67.15c0-12,0-12,11.83-11.79,5.52.07,6.5,1,6.54,6.4C1742.8,635,1742.77,640.77,1742.77,646.82ZM1632.94,418.34c-6.29,0-12.71.55-19-.14-8.38-.9-14.85,1.41-19.91,8.22-1.13,1.52-3.39,3.09-5.14,3.1-7.15.06-14.3-.64-21.46-.7a7,7,0,0,0-5,2.17,5.11,5.11,0,0,0,0,4.9,7,7,0,0,0,5,2.18c4.85,0,9.77-1.34,14.51-.82,8.7,1,15.46-1.52,20.67-8.56.92-1.25,2.58-2.71,3.94-2.75,8-.24,16.06-.89,23.87.25,4.4.63,7.2.46,10.09-4.64.39,2.87.73,4.27.75,5.67.06,5.52,0,11,0,16.55,0,6.2.08,6.21,6,6.33,2.11,0,4.23.83,6.3.68s4.45-.56,5.56-1.84c.92-1.07.91-4.2,0-5.28-1.1-1.29-3.59-1.64-5.55-1.86-1.45-.17-3,.51-4.89.9,0-6.51.2-12.33-.11-18.12-.11-2.06-.9-4.82-2.38-5.93-5.53-4.15-7.26-9.44-6.35-16,.54-3.9-1.06-5.43-5.17-5.38-13.8.2-27.61.11-41.41,0-1.79,0-3.6-.84-5.35-.7-2.07.18-4.61.46-6,1.74-.93.89-.89,4.17,0,5.25,1.11,1.29,3.59,1.72,5.53,1.9s3.88-.68,5.82-.69c11.5-.08,23,0,34.51,0h4.23C1632.38,409.29,1632.62,413.05,1632.94,418.34Zm111.23,31.13c-.25-.54-.51-1.07-.76-1.61a3.84,3.84,0,0,0,.23-1.3c-.45-2.18-.43-4.76-1.68-6.34-.71-.91-4.45-.91-5.17,0-1.25,1.57-1.53,4.15-1.64,6.33-.13,2.52.37,5.08.69,8.61-10.25-.51-19.95-1.09-29.67-1.37-1.74,0-4.21.69-5.1,2s-1,4.23,0,5.33c1.07,1.28,3.61,1.89,5.49,1.85,8.19-.19,16.36-.72,25-1.15,0,3.19.13,5.46,0,7.71-.23,3.46,1.38,4.66,4.67,4.53a56.64,56.64,0,0,1,10.58,0c12.36,1.83,22.43-1.5,29.83-12a5.81,5.81,0,0,1,4.2-2.13c11.76.17,23.52.58,35.27.92,3.32.1,5.45-1.61,5.55-4.8s-2.07-5.14-5.31-5c-7.76.28-15.61,1.75-23.25,1-12.32-1.24-22.14,1.81-29.39,12.15a5.53,5.53,0,0,1-3.7,2.23c-6.85.22-13.71.1-20.74.1V456.23c2.62,0,5.06-.18,7.46,0,3.48.32,6.25-.58,8.46-3.42s4.67-4.7,9-2.93c2.92,1.22,5.45-1,5.64-4.31s-1.81-5.56-5.08-5c-4.94.82-10.23.8-13.81,5.69C1749.53,448,1746.44,448.44,1744.17,449.47Zm-106.1,12.93c8.44.52,16.63,1.23,24.84,1.38,2.12,0,4.49-1.35,6.29-2.7.67-.5.57-3.57-.14-4.05-1.86-1.26-4.27-2.46-6.44-2.41-9.71.19-19.41.83-29.9,1.35.58-3.86,1.31-6.65,1.3-9.45,0-1.9-.54-4.27-1.77-5.54-.9-.92-3.9-1.13-4.89-.33-1.39,1.11-2,3.41-2.5,5.31-.24.81.49,1.9,1.06,3.78-2.67-.53-5.47-.25-6.47-1.45a17.55,17.55,0,0,0-13.29-6.74c-2-.08-4.59.33-6,1.57-1,.87-1,4.28-.13,5.2,1.31,1.32,3.84,1.49,5.89,2,1.9.47,4.73.08,5.62,1.25,3.75,4.86,8.52,6,14.2,5.42a26.37,26.37,0,0,1,4.27.25v9.81a41.51,41.51,0,0,0-4.27.22c-12.43,2-22.77-1.14-30.28-11.88a7.08,7.08,0,0,0-5-2.43c-11.66-.21-23.33-.1-35-.12-2.76,0-4.38,1-4.33,4s1.95,3.43,4.34,3.42c5.68,0,11.44.62,17-.13,12.25-1.65,22.08,1.55,29.5,11.81,1.16,1.59,4.14,2.46,6.34,2.58,6.28.34,12.58.17,18.87.11,10.23-.11,10.7,1.67,10.35-10A14.94,14.94,0,0,1,1638.07,462.4Zm100.18,32.11c0,8.47.13,15.95,0,23.43-.1,3.95,1.41,5.49,5.4,5.42,10-.17,19.92-.06,29.88-.05,15.43,0,15.44,0,25.79,11.29.91,1,1.24,2.62,2.27,3.34,1.71,1.19,3.92,2.81,5.63,2.53s4.1-2.55,4.3-4.18c.18-1.44-2.1-3.34-3.55-4.79-1.15-1.16-2.8-1.8-4-2.93-3.55-3.38-6.83-7.07-10.54-10.25a10.78,10.78,0,0,0-6-2.44c-5.61-.33-11.25-.11-15.62-.11-.85-3.26-.83-6.2-2.25-8a9.39,9.39,0,0,1-.34-11.92,6.71,6.71,0,0,0,1-5.31,5.2,5.2,0,0,0-4.07-2.79,6.51,6.51,0,0,0-4.65,2.79,13.34,13.34,0,0,0-1.76,6.92c.24,6,1,12,1.58,17.85h-15.41c0-7.78-.18-15.13.07-22.46.14-4.27-1.47-5.69-5.66-5.5-3.45.15-6.94-.79-10.41-.72-1.89,0-4.38.65-5.46,2-.9,1.08-.86,4.18.07,5.23,1.14,1.29,3.62,1.82,5.55,1.87C1732.53,495.76,1735,495,1738.25,494.51Zm-150.64,78.25c11.79,0,22.66.17,33.52-.14a12.56,12.56,0,0,0,7.16-3c4.3-3.68,8-8.06,12.2-11.86,2.63-2.37,3.5-4.94,3.54-8.44.13-12.36.66-24.71.94-37.07a4.57,4.57,0,0,0-4.89-5c-3.2,0-5.12,2-5,5.35.33,7.6.3,15.26,1.36,22.76,1.65,11.58-1.88,20.61-11.54,27.11-1.88,1.26-4.23,2.49-6.38,2.54-11,.25-22.1.17-33.14.08-3.48,0-5.16,1.25-4.91,4.88a72.85,72.85,0,0,1,0,7.82c-.35,8.2-.94,16.41-1,24.62a6.4,6.4,0,0,0,2.79,4.66,5.19,5.19,0,0,0,4.91-.55c1.18-1.12,1.76-3.43,1.71-5.2C1588.61,592,1588.07,582.59,1587.61,572.76Zm35.68-62.34h-5.14c-11.81,0-23.62.1-35.42-.06a10,10,0,0,0-7.71,3.06c-4.81,4.62-10.1,8.75-15,13.34a6.09,6.09,0,0,0-1.76,4.73,5.43,5.43,0,0,0,3.39,3.67,6.8,6.8,0,0,0,5.17-1.75c4.19-4.19,7.85-8.91,12.07-13a9.41,9.41,0,0,1,5.94-2.38c13-.21,26.07-.11,39.1-.11,6.82,0,7-.18,7-6.93V488.85c3.48.67,6.12,1.54,8.77,1.55a7.14,7.14,0,0,0,5.06-2,5.11,5.11,0,0,0,.12-4.9,7,7,0,0,0-4.93-2.33c-3.77-.08-7.57.84-11.34.75-4-.1-5.53,1.36-5.43,5.34C1623.41,494.71,1623.29,502.2,1623.29,510.42Zm71.12-102.83V381c2.63-2.39,4.84-3.64,5.8-5.53.58-1.14-.28-3.7-1.34-4.86-3.14-3.42-6.56.37-9.91.35-.73,0-2.08,3.06-2.13,4.75-.23,7.79-.1,15.6-.1,23.4l-1.53-.71c-1.43,2.31-4.29,4.81-4,6.9.81,6.16,5.92,3.65,9.31,3.26.3,4.73-1,10.24,1.19,13.25,4.68,6.48,10.11,13.25,20.21,11.34,3.37-.64,4.83-1.53,4.9-5.06.1-5.77.84-11.53.9-17.29,0-1.54-1.16-3.84-2.42-4.42a6.12,6.12,0,0,0-5.4.45c-1.18.94-1.63,3.39-1.58,5.16.11,4.33.68,8.66,1.07,13-5,.35-10-3.9-10.61-8.31,4.94-.29,7.46-2.39,6.94-5.78s-3.14-4.47-7.86-3.43A19.15,19.15,0,0,1,1694.41,407.59Zm16.82,164.74c0-27.83,0-54.88-.09-81.94a6.92,6.92,0,0,0-2.29-5c-1.13-.83-3.76-.73-5,.07a6,6,0,0,0-2.29,4.53c.21,6.81,1.21,13.61,1.26,20.42q.27,31.95,0,63.91c0,4,1.38,5.46,5.36,5.32,3-.1,6,.86,9,.81,1.92,0,4.45-.51,5.56-1.78.94-1.06,1-4.2,0-5.28-1.1-1.3-3.6-1.74-5.54-1.87S1713.09,572.06,1711.23,572.33Zm53.42-89.21c2,.71,5.4.91,7,2.72a15,15,0,0,0,14.12,5.49,52.32,52.32,0,0,1,7.82,0c9.44.33,18.87.83,28.32,1a6.05,6.05,0,0,0,4.52-2.25c.78-1.24.82-3.87,0-5-1-1.27-3.26-2.05-5-2.14-2.53-.12-5.08.85-7.63.89-9,.12-18.1-.17-27.13.14-4.33.16-7.76-.75-10.33-4.32-2.07-2.88-4.91-3.63-8.41-3.58-3.76.05-7.53-1-11.29-.94a6.94,6.94,0,0,0-4.95,2.26,5.22,5.22,0,0,0,0,5,7.12,7.12,0,0,0,5,2.25C1758.93,484.66,1761.31,483.78,1764.65,483.12Zm-84-53.26c.4-2.49,1-4.25.87-5.95-.19-2.07-.46-4.61-1.75-6-.89-.94-4.31-.94-5.23,0-1.3,1.31-1.53,3.84-1.83,5.91s.3,4.18-.18,6.12c-.83,3.3.15,5.71,3.23,6.49,1.79.46,4-.54,5.93-.88v21.46c-5.14,2.11-6.86,5-4.9,8.08,2.65,4.23,6.39,1.71,9.53,1.06,1.25-.26,2.85-2.65,2.9-4.12.29-8.1.14-16.22.14-24.61.71-.14,1.26-.24,1.81-.36,3.44-.76,5.21-2.92,4.1-6.32s-3.77-4-7.07-2.87C1686.07,428.64,1683.86,429,1680.61,429.86ZM1571.69,507.4c0,.19,0,.39,0,.58,5.22,0,10.44-.17,15.64.06a9,9,0,0,0,7.62-3.23c2.37-2.56,5.28-4.62,7.67-7.16,1.51-1.6,3.35-3.62,3.46-5.56.08-1.3-2.72-4-4-3.89-2,.24-3.76,2.26-5.47,3.72-3.28,2.8-6.31,8-9.67,8.2-12.3.71-24.69-.34-37-.48a7.05,7.05,0,0,0-5,2.19c-.84,1.08-.8,3.7,0,4.94a5.92,5.92,0,0,0,4.5,2.32C1556.85,508.76,1564.27,508,1571.69,507.4Zm2.22-18.91c.53-4.62,1.25-8.94,1.42-13.29a7.08,7.08,0,0,0-1.8-5.1,5.5,5.5,0,0,0-5-.49,5.72,5.72,0,0,0-2.64,4.3c0,6.37.45,12.75,1.09,19.09.12,1.24,1.8,3.26,2.86,3.32,5.81.32,12.06,1.72,16.19-4.45a15.66,15.66,0,0,1,3.57-3.56c5.24-4,2.92-9.57,2.78-14.47,0-1.06-4-2-6.1-3-.54-.26-1-.69-1.57-.92-3.23-1.3-5.58,0-6.59,3-1.07,3.12.56,5.34,3.67,6.28a17.15,17.15,0,0,0,3.41.33A11.15,11.15,0,0,1,1573.91,488.49Zm21.76,64.66c7.53.54,15.85,1.27,24.19,1.61a5.76,5.76,0,0,0,4.42-2.43,5.42,5.42,0,0,0-.22-5,7.28,7.28,0,0,0-5-2.08q-23.67-.39-47.34-.33a7.53,7.53,0,0,0-5,2.25,4.73,4.73,0,0,0-.3,4.55c1,1.39,3.13,2.8,4.74,2.77C1579,554.33,1586.92,553.68,1595.67,553.15Zm92.93-8.86a22.43,22.43,0,0,0,4-1.79c2.78-2,3-6.62-.12-7.58-2.86-.9-6.43-.18-9.49.59-.94.24-1.72,3-1.75,4.62-.18,7.8-.09,15.6-.09,23.3-5.13,2.07-7.13,4.78-5.13,7.53,1.09,1.51,4.07,3.11,5.51,2.62,2.64-.88,7.36.51,7.19-5.05C1688.42,560.43,1688.6,552.31,1688.6,544.29Zm23.16-64,.42,1.39c1.36-1.06,3.31-1.86,3.92-3.25a5.82,5.82,0,0,0-.38-5,6.29,6.29,0,0,0-4.67-2c-5,.2-9.9,1.32-14.84,1.29-6.8,0-13.6-1-20.41-1.14a6.06,6.06,0,0,0-4.56,2.28c-.79,1.23-.87,3.85,0,4.95a7.37,7.37,0,0,0,5,2.26c2.68.16,5.4-.72,8.11-.75C1693.45,480.26,1702.6,480.33,1711.76,480.33Zm34.38-94.69-.06-1.18c-3.19.35-5.26,2.1-4.95,5.36s2.5,4.58,5.81,4.49c6.65-.18,13.32,0,20-.3a8.12,8.12,0,0,0,5.32-2.39c.81-1,.68-4-.23-4.87-1.26-1.26-3.61-1.82-5.54-1.94-2.21-.14-4.46.71-6.71.78C1755.21,385.73,1750.67,385.64,1746.14,385.64ZM1646.67,397c.11,3.14,2.84,4.87,6,4.73,7-.31,14.11-.06,21.15-.32,1.77-.06,4.17-.7,5.06-1.95a5.7,5.7,0,0,0,.08-5.28c-.87-1.28-3.26-2.07-5-2.13-7.19-.22-14.4.06-21.59-.13C1649.08,391.8,1646.57,393.76,1646.67,397Zm-25.78-7.17.46,1.85c1.42-1,3.52-1.7,4.08-3a6.55,6.55,0,0,0-.41-5.38c-.78-1.16-3.08-1.75-4.73-1.79-6.88-.18-13.78-.2-20.66.07a7.62,7.62,0,0,0-5,2.33,4.71,4.71,0,0,0-.16,4.53,6.87,6.87,0,0,0,4.78,2.62C1606.5,390.84,1613.69,390.23,1620.89,389.79ZM1685.6,507c1.22,3.6,2.22,7.65,4,11.31.65,1.32,3.28,2.39,4.91,2.27a5.2,5.2,0,0,0,3.72-3.28,6.65,6.65,0,0,0-1.64-5.2c-3.36-3.42-3.49-7.77-.33-11.55a6.59,6.59,0,0,0,1.24-5.25,5.23,5.23,0,0,0-4-3c-1.64,0-4.19,1.22-4.75,2.57C1687.35,498.42,1686.76,502.33,1685.6,507ZM1665,409.45c.13-3.26-1.7-5.06-5-4.64s-4.27,2.71-4.14,6c.24,6.15,0,12.31.23,18.46.07,1.77.7,4.19,2,5.06s4.22.93,5.32,0c1.28-1.08,1.75-3.58,1.86-5.5.12-2.21-.8-4.46-.79-6.69C1664.47,417.89,1664.82,413.67,1665,409.45Zm-112.62,52.31c-3.34.13-5.09,3-4.53,6.47.38,2.43-.22,5,.06,7.46.22,1.93.6,4.4,1.89,5.48a5.41,5.41,0,0,0,5.29.06c1.31-1.05,1.73-3.52,2-5.45.35-2.47-.15-5.06.25-7.51C1558,464.51,1556,461.62,1552.41,461.76Zm268.83,5.18,1.65-1.19c-1.88-1.3-3.62-3.37-5.65-3.71-3-.5-4.76,1.66-4.83,4.77s0,6.49,0,9.73c0,3.4,1.92,5.28,5.09,5.17,3-.1,4.75-2.06,4.57-5.2S1821.52,470.13,1821.24,466.94Zm-172.81-80.15,1.21,1.46c1.26-1.9,3.3-3.7,3.57-5.74.41-3-1.9-4.6-5-4.66-2.8-.06-5.6-.18-8.4-.1-3,.08-5,1.65-5,4.8s1.79,4.89,4.91,4.86C1642.63,387.38,1645.53,387,1648.43,386.79Zm-63.15,32.67c.14.43.29.85.43,1.27,1.47-.91,3.6-1.5,4.23-2.82a6.58,6.58,0,0,0-.06-5.41c-.7-1.2-3-1.75-4.65-2a16.91,16.91,0,0,0-6,0c-1.79.35-4,1-5,2.31a5.19,5.19,0,0,0,0,4.93c1,1.3,3.19,2,5,2.28C1581.19,420.25,1583.26,419.67,1585.28,419.46ZM1762.52,540.4c.75.24,1.71.89,2.47.71,1.92-.46,4.25-.83,5.44-2.13.86-.94.86-3.94,0-4.89-1.2-1.31-3.52-1.79-5.45-2.18a13.79,13.79,0,0,0-5.54-.1c-1.78.38-3.86,1.11-4.94,2.41a4.72,4.72,0,0,0,0,4.55c1,1.33,3.13,2,4.89,2.51C1760.2,541.53,1761.35,540.75,1762.52,540.4Zm-146.58-53.32,1.16,1.42c1.31-1.89,3.49-3.68,3.72-5.7.36-3.19-2-4.85-5.33-4.82a41.8,41.8,0,0,0-6.44.16c-1.67.28-3.82.83-4.66,2a5.57,5.57,0,0,0-.27,5c.71,1.28,2.83,2.27,4.44,2.44C1611,487.87,1613.48,487.3,1615.94,487.08ZM1729.32,386l1.07,1.27c1.26-1.78,3.3-3.44,3.61-5.38.47-2.91-1.56-4.85-4.68-5-2.61-.12-5.23-.1-7.84,0-3.11.08-5,1.84-5,4.84s1.81,4.86,5,4.81C1724.08,386.49,1726.7,386.2,1729.32,386ZM1800,506.6c.08-3.82-2.56-5.79-6.17-5.23-1.66.26-3.44-.17-5.09.12-1.82.32-4,.68-5.2,1.85-.9.84-1.15,3.28-.62,4.56,2.59,6.1,8.26.69,12.16,2.83.82.45,3-1.36,4.41-2.36C1799.92,508,1799.87,507,1800,506.6Zm-195.84,30.32c.38.47.77.93,1.15,1.39,1.29-1.89,3.45-3.68,3.67-5.68.35-3.18-2-4.83-5.33-4.72-2.16.07-4.32.1-6.47,0-3.27-.12-5.44,1.22-5.58,4.59s1.86,5.07,5.16,5C1599.19,537.46,1601.65,537.13,1604.12,536.92Zm183.12-70.06-1.06-1.31c-1.27,1.77-3.31,3.42-3.64,5.35-.5,2.91,1.53,4.85,4.62,5,2.63.15,5.27.11,7.9,0,3.06-.11,4.9-1.7,4.88-4.85s-1.82-4.82-4.91-4.79C1792.43,466.33,1789.84,466.66,1787.24,466.86Z" transform="translate(-50.09 -282.46)"/><path class="cls-2" d="M737.88,706.74h60.5c.21.47.54.87.54,1.26,0,17.16.55,34.35-.13,51.49-.83,21.29-13.64,35.34-34.66,39a114.43,114.43,0,0,1-19.2,1.74c-21.93,0-43.88.22-65.79-.63-13.84-.54-26.51-5.12-35.21-17-5.84-8-8-17.18-8-26.81q-.33-90.82-.33-181.65c0-25.78,15.15-42.8,40.89-44,26.92-1.19,54-1,80.91,0,21.16.74,34.78,12.44,39.92,31.34a25.26,25.26,0,0,1,1.06,6.31c.08,18.67,0,37.34,0,56.25H737.89c-.08-1.53-.22-3-.23-4.46-.09-12.26-.11-24.53-.24-36.79-.09-8.73-2.92-11.63-11.51-11.82-5.67-.12-11.35-.15-17,0-8.58.24-11.46,3.28-11.45,11.9q.08,75.89.21,151.76c0,4.14,0,8.28,0,12.42.15,8.77,2.56,11.26,11.21,11.42q9,.15,18,0c8.42-.14,11-2.71,11.06-11.07.06-12,0-23.92,0-35.88Z" transform="translate(-50.09 -282.46)"/><path class="cls-3" d="M275.69,497.92l26.68,30.62c-2.42.13-3.87.26-5.32.27-14.27,0-28.54-.08-42.8.07a8.12,8.12,0,0,1-7.1-3.17c-4.93-6.06-10.25-11.81-15.15-17.9a10.4,10.4,0,0,0-9.37-4.36c-8.27.29-16.58.34-24.84-.13C173.84,502,162.48,489.84,162.47,466q0-66.22,0-132.44a52.72,52.72,0,0,1,.29-6.89c2.18-16.87,10.76-27.6,28.24-28.8a492.2,492.2,0,0,1,71.12.28c17.91,1.37,27.28,14.19,27.37,32.29.15,32,.05,64.07.06,96.1,0,12.73-.16,25.45,0,38.17C289.8,477.68,287.43,489.47,275.69,497.92Zm-33.78-97.66c0-20.22,0-40.45,0-60.67,0-6.08-1.95-8.56-7.49-8.87a161.6,161.6,0,0,0-17.47,0c-5.45.29-7.71,2.83-7.72,8.29q-.06,61.13,0,122.25c0,5.57,2.52,8,8.27,8.14,4.91.14,9.81.06,14.72,0,7.78,0,9.69-2,9.7-9.86Q241.94,429.9,241.91,400.26Z" transform="translate(-50.09 -282.46)"/><path class="cls-4" d="M889.74,800.05c-.94-3.35.33-4.56,3.61-5.33,11.43-2.66,11.56-2.84,11.59-14.78.07-27.13,0-54.27-.07-81.4,0-1.69-.11-3.37-.2-5.06-.21-3.81-2.13-5.45-6-4.94-2.71.35-5.46.45-8.22.67-1.21-3.6,0-4.89,3.32-6,7.52-2.49,14.8-5.72,22.23-8.52,1.25-.47,3.19-.84,4-.22s1.08,2.59,1,3.92c-.2,3.66-.71,7.29-.2,11.53,2.1-2.24,4.31-4.4,6.3-6.74,8.44-10,18.86-13,31.36-9.22,13.43,4.06,20.61,13.73,22.2,27a80.89,80.89,0,0,1-.83,25c-4.23,21.19-25.87,38.47-46.11,37.57-4.5-.2-8.94-1.75-13.26-2.65,0,8.92-.19,18,.18,27.14.07,1.52,2.29,3.44,4,4.3a26.28,26.28,0,0,0,7.87,2.37c3.23.52,4.8,1.79,3.59,5.33Zm29.43-72.75.21,0c0,5-.07,10.11,0,15.16,0,1.26.26,3,1.08,3.69,6.62,5.68,14,9.38,23.1,7.72,10.55-1.92,19.8-12.86,21.85-25.52a49.1,49.1,0,0,0-5.11-30.92c-2.8-5.46-6.71-9.82-13.11-11.28-12.44-2.84-25.29,6.73-26.92,20.51C919.51,713.51,919.52,720.43,919.17,727.3Z" transform="translate(-50.09 -282.46)"/><path class="cls-4" d="M995.58,757.31c13-4.43,13.56-4.42,13.64-17.71.17-29.41-.19-58.82-.43-88.24,0-5.09-2.12-6.67-7.35-6.22-2.24.19-4.48.51-6.62.76-1.6-4.35.15-5.88,3.91-7.11,7.67-2.51,15.17-5.58,22.67-8.58,3.47-1.38,4.22-.9,4.08,2.88q-1,28.68-2,57.37l1.21.61c2.82-2.79,5.73-5.52,8.46-8.4,7.79-8.22,17.43-9.74,27.89-7.4,9.19,2.05,15.24,8.51,15.73,18,.78,15.28.69,30.61,1,45.93,0,1.07,0,2.14,0,3.22,0,11.06.18,11.51,10.71,13.82,3.25.72,4.12,2.07,3.36,5.19h-43.38v-4.31c2.86-.88,5.73-1.88,8.66-2.61,3.13-.78,4.9-2.74,5-5.8.22-15.46.28-30.92.42-46.37.1-10.57-10.38-18.06-22.59-13.54-10.14,3.75-15,11.48-15.26,21.83-.3,12.23.19,24.49.29,36.73,0,4.12,1.91,6.58,6,7.33,1.49.27,2.89,1.14,4.38,1.31,3.6.43,4.52,2.34,3.66,5.43H995.77C995.71,760.24,995.65,758.82,995.58,757.31Z" transform="translate(-50.09 -282.46)"/><path class="cls-5" d="M403,482v3.59c-9.72,4.22-18.93,8.21-28.12,12.24-2.91,1.28-4.52.21-4.29-3.15s.66-6.85,1.07-10.9c-4.44,3.66-8.15,7-12.19,10-9,6.57-18.94,6.63-28.78,2.44-8.73-3.71-11.34-11.63-11.54-20.33-.27-12.1,0-24.21-.14-36.32,0-4.13-.34-8.26-.69-12.38-.56-6.5-1.87-7.75-8.46-8.52-2.25-.26-4.5-.55-6.82-.83v-4.43c9.59-1,19-2,28.43-2.91,3.31-.33,4.14,1.36,4,4.46-.68,13.76-1.27,27.53-1.67,41.3-.13,4.58.61,9.17.6,13.76,0,12.33,10.84,18.65,22.68,14.4,8.84-3.17,14.05-9.51,14.36-18.82.44-13.31.14-26.65.05-40,0-4.11-2.24-6.51-6.43-6.89l-8.94-.81v-4.6c9.43-.95,18.84-1.92,28.25-2.82,3.49-.34,3.83,1.71,3.77,4.63-.44,19.29-.72,38.59-1,57.88a33.59,33.59,0,0,0,.46,5.48c.5,3.31,2.63,4.71,5.84,4.48C396.42,482.68,399.46,482.3,403,482Z" transform="translate(-50.09 -282.46)"/><path class="cls-4" d="M496.11,481.16,499,485c-4.53,4-8.73,8.28-13.44,11.86-6.23,4.73-16,1.65-18.84-5.59-.65-1.65-1.05-3.4-1.59-5.2-4.12,2.91-8,5.84-12.12,8.51a26.57,26.57,0,0,1-20.73,3.62c-9-1.92-14.32-7.88-16.2-16.79-2.09-9.87,1.9-20.51,10.5-25.62,8.26-4.91,17.1-8.84,25.7-13.17,1.91-1,4.09-1.5,5.8-2.71,2.43-1.73,7.54-.43,7-5.57-.77-7.12-.78-15-9.66-17.48-8.3-2.34-15.59-.21-21,6.68-2.69,3.48-4.68,7.49-7.27,11.71l-5.56-.87c.53-3.33,1.62-6.37,1.37-9.29-.71-8.34,3.75-11.71,11.05-13.72,10-2.75,19.89-5.28,30.27-2.83,9.6,2.28,15.46,8.52,15.76,18.36.45,14.69,0,29.4,0,44.11a52.72,52.72,0,0,0,.41,9.16c.87,4.93,4.15,6.58,8.78,4.64C491.45,483.84,493.54,482.53,496.11,481.16Zm-31.56-36.51c-8.93,5.14-17.86,10.25-26.74,15.46a9.46,9.46,0,0,0-2.51,2.64c-6.59,8.92-2.39,22.76,7.43,24.63,8.86,1.69,21.14-7.06,21.71-16.11C465,462.78,464.55,454.23,464.55,444.65Z" transform="translate(-50.09 -282.46)"/><path class="cls-5" d="M1120.7,709.55c1.48,8.28,2.06,16.17,4.39,23.5,4.7,14.78,16.11,20.58,31,16.09,6.52-2,12.63-5.24,19.26-8.06l3.74,5.46c-9.33,5.44-17.81,12.55-27.56,15.62-21.19,6.66-40.89-7.17-45-29.92-.9-5-2.36-10.24-1.76-15.14,1.85-15.06,6.87-28.79,20.36-37.7,11.19-7.39,23.36-9,36-4.86,10.7,3.47,18.43,16.54,16.84,27.36-.34,2.33-6.7,6.51-10,6.57q-21.63.42-43.25.88C1123.89,709.36,1123,709.43,1120.7,709.55Zm2.32-7.19,38.33-1.84c0-11.93-6.14-19.63-15.89-20.45C1134.6,679.15,1125.64,687.83,1123,702.36Z" transform="translate(-50.09 -282.46)"/><path class="cls-5" d="M1266.64,759.08c.47-8.14.91-15.76,1.36-23.66h6c1.46,3.59,2.68,7.19,4.36,10.57,3.3,6.64,9,9.77,16.28,10.2,6.45.37,12-2.61,14.17-7.45a14.35,14.35,0,0,0-3.37-16.07,65.13,65.13,0,0,0-10.81-7.66c-4.84-2.92-10-5.33-14.86-8.22-7.77-4.6-13.82-10.7-12.93-20.52,1-10.51,7.58-17.09,16.93-21,10.47-4.43,25.89-3.41,37.17,2.28-.76,7-1.53,14.16-2.32,21.49-4.06.65-6.41.39-7.39-4.87-2-10.7-12.13-16.29-22.31-13.3-9.13,2.69-11.86,12.75-4.7,19,4.33,3.76,9.62,6.45,14.59,9.44,4.19,2.52,8.64,4.62,12.8,7.18,8.67,5.32,13.53,12.78,12.14,23.33s-7.72,17.41-17.33,21.32c-9.29,3.78-18.9,3.23-28.47,1.17C1274.25,761.44,1270.61,760.2,1266.64,759.08Z" transform="translate(-50.09 -282.46)"/><path class="cls-5" d="M627,483.9l2.64,5.22c-8,4.54-15.54,9.91-25.32,9.57-7.92-.28-14.35-5.78-14.46-13.73-.28-19.75,0-39.49.07-59.24v-5l-13.84.68c1.12-2.37,1.45-4.76,2.69-5.4,9.89-5.16,16.14-13.5,20.67-23.24,1.65-3.54,3.66-4.35,7.26-3.16-.61,7.31-1.21,14.59-1.83,22h25c-1.06,8.09-3,9.89-10.35,9.6-4.74-.18-9.48-.46-14.51-.71a18,18,0,0,0-.42,2.62q-.35,22.27-.63,44.56c0,2.45.18,4.9.37,7.34.9,11.09,6.16,14.56,16.68,11C622.91,485.43,624.75,484.72,627,483.9Z" transform="translate(-50.09 -282.46)"/><path class="cls-4" d="M1191.23,688.28v-3.82l27-11.13c2.89-1.19,4.22.12,3.85,3.74-.55,5.41-1.08,10.83-1.76,17.64,9.92-11.09,17.34-24.92,35-17.46q-1.59,9.51-3.14,18.83c-4,1.92-5.23-1.1-6.83-3.47-3.3-4.89-6.15-5.63-11.12-2.38-7.3,4.78-12.33,11.5-12.74,20.26-.56,12.21-.13,24.47,0,36.7,0,4,2.18,6.52,6.2,7.46,3,.69,5.87,1.64,9,2.54v4.21h-45.48c-1.07-3.28.29-4.55,3.67-5.44,11.4-3,11.47-3.15,11.54-14.86.09-15,.1-30-.1-45.05-.11-8.65-1.73-9.77-10.38-8.31C1194.56,688,1193.05,688.08,1191.23,688.28Z" transform="translate(-50.09 -282.46)"/><path class="cls-4" d="M553.78,496.42H507.11v-4.26a77.62,77.62,0,0,1,8.25-2.48c4.94-.95,6.87-3.92,6.87-8.7,0-7.51.26-15,.25-22.53,0-9.65-.05-19.31-.33-28.95-.19-6.62-2.06-8-8.7-7.06-2,.27-3.92.62-6.35,1-.11-1.68-.2-3.11-.25-3.88,9.4-3.89,18.35-7.68,27.39-11.28,3.26-1.3,4,.78,3.7,3.52-.55,5.48-1.11,11-1.57,15.41,3.67-3.17,8-6.58,11.94-10.42,6.93-6.8,13.4-8.28,22.82-4.54-1,6.22-2.06,12.5-3.15,19.12l-4.44.23c-.43-1.19-.75-2.18-1.15-3.13-2.14-5.07-5.61-6.69-10.2-3.87-7.72,4.75-14.46,10.86-14.86,20.61-.52,12.36-.15,24.77,0,37.16.07,3.92,2.15,6.43,6.38,7.15a97,97,0,0,1,9.83,2.71C553.66,493.68,553.72,495,553.78,496.42Z" transform="translate(-50.09 -282.46)"/><path class="cls-6" d="M838,689.22c-1-3.78.41-4.87,3.45-6,8.45-3,16.68-6.65,26-10.46.33,2.06,1.07,4.38,1,6.68-.41,19.58-1,39.16-1.46,58.75,0,1.07,0,2.14.09,3.21.53,11.23.53,11.23,11.2,14.57,3.7,1.16,3.7,1.16,3.45,5.38h-44v-4.08c3.42-1.12,7-1.78,10-3.47,1.93-1.08,4.22-3.64,4.27-5.59q.63-25.92.38-51.86c-.07-6.42-1.37-7.16-7.9-7.18Z" transform="translate(-50.09 -282.46)"/><path class="cls-5" d="M860.28,648.66a9.67,9.67,0,0,1-.25-19.34c5.7-.09,9.75,4,9.71,9.76A9.28,9.28,0,0,1,860.28,648.66Z" transform="translate(-50.09 -282.46)"/><path class="cls-7" d="M1696.57,741.37c-11.82,0-22.36.08-32.89-.09-1.27,0-2.77-1.15-3.72-2.17-4.14-4.51-7.3-10.91-12.39-13.27s-12-.71-18.11-.88c-16.62-.47-24.64-8.63-24.67-25.33q-.09-42.06,0-84.12c0-16.69,6.72-24.49,23.52-25.37a347.15,347.15,0,0,1,39.5.52c13,.81,20.14,8.58,20.23,21.58.23,30,.13,60.06,0,90.1,0,7.49-2.4,14.13-9,18.93C1684.75,727.8,1690.24,734.12,1696.57,741.37Zm-39.75-83.48V625.75c0-13.83,0-13.83-13.92-13.62-6.41.1-7.7,1.39-7.7,7.92q0,34.22,0,68.42c0,14.63,0,14.63,14.64,14.3,5.55-.13,7-1.53,7-7.23C1656.84,683,1656.82,670.44,1656.82,657.89Z" transform="translate(-50.09 -282.46)"/><path class="cls-8" d="M1742.77,646.82c0-6.05,0-11.84,0-17.63,0-5.4-1-6.33-6.54-6.4-11.83-.16-11.83-.16-11.83,11.79q0,33.58,0,67.15c0,5.78.94,6.73,6.59,6.77,12.65.08,11.85.73,11.79-11.62,0-3.82,0-7.65,0-11.83h28.54c-.46,9.57-.19,19.24-1.6,28.65-1.19,8-7.7,12.59-15.37,13a340.77,340.77,0,0,1-41.3,0c-10.3-.72-16.26-8.06-16.34-18.4q-.35-42.53,0-85.08c.1-11.68,7.31-18.63,20.23-19.31a308.32,308.32,0,0,1,33.58,0c13.91.81,20.3,8.17,20.41,22.07.06,6.86,0,13.73,0,20.84Z" transform="translate(-50.09 -282.46)"/><path class="cls-9" d="M1762.92,403.9h-26.2c-.23,4.19-.45,8.06-.7,12.71a31.66,31.66,0,0,0,5.42.95c6.9.13,13.81.19,20.71,0,3.17-.09,5.75.59,7.6,3.21,4.87,6.93,11.44,9.53,19.78,8.18,4-.65,8.12-.89,12.19-1.24,3.28-.28,5.46,1.1,5.59,4.55s-1.83,5.09-5.18,5c-7.48-.24-15-.79-22.43-.79-3.5,0-6.33-.7-8.37-3.58-4.69-6.62-11-9-19-7.91a107.75,107.75,0,0,1-16.84.94c-2.22-.05-4.41-1.76-7.17-3a18.1,18.1,0,0,0-.54,3.32c-.07,6-.17,12,0,17.93.11,3.66-1.1,5.35-5,5.38-2.66,0-5.32,1.13-8,1.18-1.79,0-4.12-.45-5.24-1.63a5.21,5.21,0,0,1-.52-4.94c.85-1.38,3-2.29,4.79-2.63s3.88.21,6.39.43c0-6.22-.26-12,.13-17.78.16-2.33,1.12-5.3,2.79-6.68,4.7-3.89,6.34-8.37,5.85-14.39-.52-6.36,0-6.52,6.27-6.52,12.73,0,25.46.05,38.2,0,2.7,0,5.41-.93,8.09-.81,1.92.09,4.29.77,5.5,2.08.88.94.89,4,0,4.92-1.21,1.3-3.58,1.95-5.49,2.06-2.53.13-5.11-.54-7.66-.86-.79-.22-1.78-.86-2.32-.59-2.51,1.27-4.87,2.21-7.29-.16C1764.24,403.06,1763.42,403.65,1762.92,403.9Z" transform="translate(-50.09 -282.46)"/><path class="cls-9" d="M1632.94,418.34c-.32-5.29-.56-9-.84-13.56h-4.23c-11.5,0-23,0-34.51,0-1.94,0-3.91.86-5.82.69s-4.42-.61-5.53-1.9c-.93-1.08-1-4.36,0-5.25,1.34-1.28,3.88-1.56,6-1.74,1.75-.14,3.56.69,5.35.7,13.8.07,27.61.16,41.41,0,4.11,0,5.71,1.48,5.17,5.38-.91,6.55.82,11.84,6.35,16,1.48,1.11,2.27,3.87,2.38,5.93.31,5.79.11,11.61.11,18.12,1.89-.39,3.44-1.07,4.89-.9,2,.22,4.45.57,5.55,1.86.93,1.08.94,4.21,0,5.28-1.11,1.28-3.61,1.69-5.56,1.84s-4.19-.63-6.3-.68c-6-.12-6-.13-6-6.33,0-5.52,0-11,0-16.55,0-1.4-.36-2.8-.75-5.67-2.89,5.1-5.69,5.27-10.09,4.64-7.81-1.14-15.9-.49-23.87-.25-1.36,0-3,1.5-3.94,2.75-5.21,7-12,9.52-20.67,8.56-4.74-.52-9.66.79-14.51.82a7,7,0,0,1-5-2.18,5.11,5.11,0,0,1,0-4.9,7,7,0,0,1,5-2.17c7.16.06,14.31.76,21.46.7,1.75,0,4-1.58,5.14-3.1,5.06-6.81,11.53-9.12,19.91-8.22C1620.23,418.89,1626.65,418.34,1632.94,418.34Z" transform="translate(-50.09 -282.46)"/><path class="cls-10" d="M1744.17,449.47c2.27-1,5.36-1.44,6.65-3.19,3.58-4.89,8.87-4.87,13.81-5.69,3.27-.54,5.28,1.75,5.08,5s-2.72,5.53-5.64,4.31c-4.29-1.77-6.7.05-9,2.93s-5,3.74-8.46,3.42c-2.4-.22-4.84,0-7.46,0v10.25c7,0,13.89.12,20.74-.1a5.53,5.53,0,0,0,3.7-2.23c7.25-10.34,17.07-13.39,29.39-12.15,7.64.77,15.49-.7,23.25-1,3.24-.12,5.42,1.79,5.31,5s-2.23,4.9-5.55,4.8c-11.75-.34-23.51-.75-35.27-.92a5.81,5.81,0,0,0-4.2,2.13c-7.4,10.49-17.47,13.82-29.83,12a56.64,56.64,0,0,0-10.58,0c-3.29.13-4.9-1.07-4.67-4.53.16-2.25,0-4.52,0-7.71-8.62.43-16.79,1-25,1.15-1.88,0-4.42-.57-5.49-1.85-.92-1.1-.86-4.08,0-5.33s3.36-2,5.1-2c9.72.28,19.42.86,29.67,1.37-.32-3.53-.82-6.09-.69-8.61.11-2.18.39-4.76,1.64-6.33.72-.9,4.46-.9,5.17,0,1.25,1.58,1.23,4.16,1.68,6.34a3.84,3.84,0,0,1-.23,1.3C1743.66,448.4,1743.92,448.93,1744.17,449.47Z" transform="translate(-50.09 -282.46)"/><path class="cls-10" d="M1638.07,462.4a14.94,14.94,0,0,0-.5,2.3c.35,11.63-.12,9.85-10.35,10-6.29.06-12.59.23-18.87-.11-2.2-.12-5.18-1-6.34-2.58-7.42-10.26-17.25-13.46-29.5-11.81-5.58.75-11.34.1-17,.13-2.39,0-4.29-.43-4.34-3.42s1.57-4,4.33-4c11.66,0,23.33-.09,35,.12a7.08,7.08,0,0,1,5,2.43c7.51,10.74,17.85,13.83,30.28,11.88a41.51,41.51,0,0,1,4.27-.22v-9.81a26.37,26.37,0,0,0-4.27-.25c-5.68.61-10.45-.56-14.2-5.42-.89-1.17-3.72-.78-5.62-1.25-2-.51-4.58-.68-5.89-2-.9-.92-.82-4.33.13-5.2,1.36-1.24,3.93-1.65,6-1.57a17.55,17.55,0,0,1,13.29,6.74c1,1.2,3.8.92,6.47,1.45-.57-1.88-1.3-3-1.06-3.78.54-1.9,1.11-4.2,2.5-5.31,1-.8,4-.59,4.89.33,1.23,1.27,1.77,3.64,1.77,5.54,0,2.8-.72,5.59-1.3,9.45,10.49-.52,20.19-1.16,29.9-1.35,2.17-.05,4.58,1.15,6.44,2.41.71.48.81,3.55.14,4.05-1.8,1.35-4.17,2.74-6.29,2.7C1654.7,463.63,1646.51,462.92,1638.07,462.4Z" transform="translate(-50.09 -282.46)"/><path class="cls-11" d="M1738.25,494.51c-3.21.51-5.72,1.25-8.21,1.19-1.93-.05-4.41-.58-5.55-1.87-.93-1.05-1-4.15-.07-5.23,1.08-1.3,3.57-1.91,5.46-2,3.47-.07,7,.87,10.41.72,4.19-.19,5.8,1.23,5.66,5.5-.25,7.33-.07,14.68-.07,22.46h15.41c-.55-5.84-1.34-11.83-1.58-17.85a13.34,13.34,0,0,1,1.76-6.92,6.51,6.51,0,0,1,4.65-2.79,5.2,5.2,0,0,1,4.07,2.79,6.71,6.71,0,0,1-1,5.31,9.39,9.39,0,0,0,.34,11.92c1.42,1.78,1.4,4.72,2.25,8,4.37,0,10-.22,15.62.11a10.78,10.78,0,0,1,6,2.44c3.71,3.18,7,6.87,10.54,10.25,1.19,1.13,2.84,1.77,4,2.93,1.45,1.45,3.73,3.35,3.55,4.79-.2,1.63-2.58,3.9-4.3,4.18s-3.92-1.34-5.63-2.53c-1-.72-1.36-2.35-2.27-3.34-10.35-11.31-10.36-11.29-25.79-11.29-10,0-19.92-.12-29.88.05-4,.07-5.5-1.47-5.4-5.42C1738.38,510.46,1738.25,503,1738.25,494.51Z" transform="translate(-50.09 -282.46)"/><path class="cls-11" d="M1587.61,572.76c.46,9.83,1,19.22,1.27,28.61,0,1.77-.53,4.08-1.71,5.2a5.19,5.19,0,0,1-4.91.55,6.4,6.4,0,0,1-2.79-4.66c.1-8.21.69-16.42,1-24.62a72.85,72.85,0,0,0,0-7.82c-.25-3.63,1.43-4.91,4.91-4.88,11,.09,22.09.17,33.14-.08,2.15,0,4.5-1.28,6.38-2.54,9.66-6.5,13.19-15.53,11.54-27.11-1.06-7.5-1-15.16-1.36-22.76-.15-3.32,1.77-5.35,5-5.35a4.57,4.57,0,0,1,4.89,5c-.28,12.36-.81,24.71-.94,37.07,0,3.5-.91,6.07-3.54,8.44-4.21,3.8-7.9,8.18-12.2,11.86a12.56,12.56,0,0,1-7.16,3C1610.27,572.93,1599.4,572.76,1587.61,572.76Z" transform="translate(-50.09 -282.46)"/><path class="cls-10" d="M1744.43,552.93c.37,3.52,3,3.51,5.57,3.51,11,0,22.1.13,33.14-.07,4.06-.07,5.44,1.41,5.35,5.37-.19,8.43-.13,16.87,0,25.3,0,2.24,1,4.5.89,6.7-.13,1.77-.92,4-2.22,5a5.18,5.18,0,0,1-4.94,0,6.76,6.76,0,0,1-2.37-4.93c.29-9.74,1-19.47,1.53-30h-6c-9.06,0-18.12.22-27.16-.14a12.87,12.87,0,0,1-7.57-3c-5.34-4.82-12-9.38-14.68-15.55-2.56-6-.62-13.86-.86-20.89-.23-6.69-.87-13.37-1-20a6,6,0,0,1,2.29-4.51,5.37,5.37,0,0,1,4.95.05,7,7,0,0,1,2.15,5c-.15,12.05-.59,24.1-.92,36.15,0,.45-.09,1.1.16,1.34,3.9,3.61,7.84,7.17,11.77,10.74Z" transform="translate(-50.09 -282.46)"/><path class="cls-11" d="M1623.29,510.42c0-8.22.12-15.71,0-23.2-.1-4,1.43-5.44,5.43-5.34,3.77.09,7.57-.83,11.34-.75a7,7,0,0,1,4.93,2.33,5.11,5.11,0,0,1-.12,4.9,7.14,7.14,0,0,1-5.06,2c-2.65,0-5.29-.88-8.77-1.55v22.09c0,6.75-.19,6.93-7,6.93-13,0-26.07-.1-39.1.11a9.41,9.41,0,0,0-5.94,2.38c-4.22,4.14-7.88,8.86-12.07,13a6.8,6.8,0,0,1-5.17,1.75,5.43,5.43,0,0,1-3.39-3.67,6.09,6.09,0,0,1,1.76-4.73c4.85-4.59,10.14-8.72,15-13.34a10,10,0,0,1,7.71-3.06c11.8.16,23.61.06,35.42.06Z" transform="translate(-50.09 -282.46)"/><path class="cls-12" d="M1694.41,407.59a19.15,19.15,0,0,0,3.42-.18c4.72-1,7.34.06,7.86,3.43s-2,5.49-6.94,5.78c.63,4.41,5.57,8.66,10.61,8.31-.39-4.31-1-8.64-1.07-13,0-1.77.4-4.22,1.58-5.16a6.12,6.12,0,0,1,5.4-.45c1.26.58,2.43,2.88,2.42,4.42-.06,5.76-.8,11.52-.9,17.29-.07,3.53-1.53,4.42-4.9,5.06-10.1,1.91-15.53-4.86-20.21-11.34-2.17-3-.89-8.52-1.19-13.25-3.39.39-8.5,2.9-9.31-3.26-.27-2.09,2.59-4.59,4-6.9l1.53.71c0-7.8-.13-15.61.1-23.4.05-1.69,1.4-4.76,2.13-4.75,3.35,0,6.77-3.77,9.91-.35,1.06,1.16,1.92,3.72,1.34,4.86-1,1.89-3.17,3.14-5.8,5.53Z" transform="translate(-50.09 -282.46)"/><path class="cls-11" d="M1663.45,526.32a20.86,20.86,0,0,0-1,4.51c-.09,12.26-.17,24.52,0,36.78.07,4.29-1.18,6.21-5.77,5.94-3-.16-6,.94-9,1-1.78,0-4.21-.46-5.16-1.66a5.71,5.71,0,0,1-.39-5.29c.8-1.33,3.17-2.22,4.92-2.35,2.31-.17,4.68.6,7.69,1.07v-5.61q0-34,0-68c0-2.57-.83-5.15-.68-7.69.1-1.9.65-4.37,2-5.43a5.45,5.45,0,0,1,5.28,0c1.3,1.1,1.94,3.61,1.93,5.5,0,13-.32,25.91-.49,38.86,0,.15.48.31.73.46C1663.44,525,1663.44,525.67,1663.45,526.32Z" transform="translate(-50.09 -282.46)"/><path class="cls-9" d="M1711.23,572.33c1.86-.27,4-.93,6-.78s4.44.57,5.54,1.87c.91,1.08.89,4.22,0,5.28-1.11,1.27-3.64,1.75-5.56,1.78-3,0-6-.91-9-.81-4,.14-5.39-1.27-5.36-5.32q.23-32,0-63.91c0-6.81-1-13.61-1.26-20.42a6,6,0,0,1,2.29-4.53c1.27-.8,3.9-.9,5-.07a6.92,6.92,0,0,1,2.29,5C1711.27,517.45,1711.23,544.5,1711.23,572.33Z" transform="translate(-50.09 -282.46)"/><path class="cls-10" d="M1764.65,483.12c-3.34.66-5.72,1.54-8.07,1.46a7.12,7.12,0,0,1-5-2.25,5.22,5.22,0,0,1,0-5,6.94,6.94,0,0,1,4.95-2.26c3.76,0,7.53,1,11.29.94,3.5-.05,6.34.7,8.41,3.58,2.57,3.57,6,4.48,10.33,4.32,9-.31,18.09,0,27.13-.14,2.55,0,5.1-1,7.63-.89,1.75.09,4,.87,5,2.14.84,1.09.8,3.72,0,5a6.05,6.05,0,0,1-4.52,2.25c-9.45-.15-18.88-.65-28.32-1a52.32,52.32,0,0,0-7.82,0,15,15,0,0,1-14.12-5.49C1770.05,484,1766.62,483.83,1764.65,483.12Z" transform="translate(-50.09 -282.46)"/><path class="cls-10" d="M1680.61,429.86c3.25-.82,5.46-1.22,7.55-1.95,3.3-1.16,6-.51,7.07,2.87s-.66,5.56-4.1,6.32c-.55.12-1.1.22-1.81.36,0,8.39.15,16.51-.14,24.61,0,1.47-1.65,3.86-2.9,4.12-3.14.65-6.88,3.17-9.53-1.06-2-3.12-.24-6,4.9-8.08V435.59c-2,.34-4.14,1.34-5.93.88-3.08-.78-4.06-3.19-3.23-6.49.48-1.94-.1-4.11.18-6.12s.53-4.6,1.83-5.91c.92-.93,4.34-.93,5.23,0,1.29,1.34,1.56,3.88,1.75,6C1681.63,425.61,1681,427.37,1680.61,429.86Z" transform="translate(-50.09 -282.46)"/><path class="cls-10" d="M1571.69,507.4c-7.42.6-14.84,1.36-22.27,1.69a5.92,5.92,0,0,1-4.5-2.32c-.77-1.24-.81-3.86,0-4.94a7.05,7.05,0,0,1,5-2.19c12.36.14,24.75,1.19,37,.48,3.36-.19,6.39-5.4,9.67-8.2,1.71-1.46,3.52-3.48,5.47-3.72,1.24-.15,4,2.59,4,3.89-.11,1.94-1.95,4-3.46,5.56-2.39,2.54-5.3,4.6-7.67,7.16a9,9,0,0,1-7.62,3.23c-5.2-.23-10.42-.06-15.64-.06C1571.72,507.79,1571.71,507.59,1571.69,507.4Z" transform="translate(-50.09 -282.46)"/><path class="cls-13" d="M1573.91,488.49a11.15,11.15,0,0,0,11.29-9,17.15,17.15,0,0,1-3.41-.33c-3.11-.94-4.74-3.16-3.67-6.28,1-3,3.36-4.29,6.59-3,.55.23,1,.66,1.57.92,2.13,1,6.08,2,6.1,3,.14,4.9,2.46,10.5-2.78,14.47a15.66,15.66,0,0,0-3.57,3.56c-4.13,6.17-10.38,4.77-16.19,4.45-1.06-.06-2.74-2.08-2.86-3.32-.64-6.34-1-12.72-1.09-19.09a5.72,5.72,0,0,1,2.64-4.3,5.5,5.5,0,0,1,5,.49,7.08,7.08,0,0,1,1.8,5.1C1575.16,479.55,1574.44,483.87,1573.91,488.49Z" transform="translate(-50.09 -282.46)"/><path class="cls-12" d="M1595.67,553.15c-8.75.53-16.64,1.18-24.55,1.36-1.61,0-3.75-1.38-4.74-2.77a4.73,4.73,0,0,1,.3-4.55,7.53,7.53,0,0,1,5-2.25q23.67-.08,47.34.33a7.28,7.28,0,0,1,5,2.08,5.42,5.42,0,0,1,.22,5,5.76,5.76,0,0,1-4.42,2.43C1611.52,554.42,1603.2,553.69,1595.67,553.15Z" transform="translate(-50.09 -282.46)"/><path class="cls-9" d="M1744.51,553c-1.61-7.22.27-9,7.67-7.72a48.34,48.34,0,0,0,8.26.2c9.8,0,19.61.07,29.42,0,2.23,0,4.46-1,6.67-.9,1.92.08,4.27.54,5.53,1.76.92.89,1.12,3.87.32,4.87a7.54,7.54,0,0,1-5.26,2.52c-14.66-.08-29.32-.45-44-.72-2.91-.05-5.81,0-8.71-.05Z" transform="translate(-50.09 -282.46)"/><path class="cls-9" d="M1663.45,526.32c0-.65,0-1.31,0-2l6.08-5.27,1.17,1c0-7.94-.12-15.88.1-23.81,0-1.65,1.37-4.65,2.15-4.67,3.44-.06,7.17-3.6,10.29.17.91,1.11,1.56,3.56,1,4.52-1.15,1.82-3.31,3-6,5.27,0,6.45,0,14.39,0,22.32,0,2.41,0,5.12-3.16,5C1671,528.77,1665.84,533.49,1663.45,526.32Z" transform="translate(-50.09 -282.46)"/><path class="cls-11" d="M1688.6,544.29c0,8-.18,16.14.07,24.24.17,5.56-4.55,4.17-7.19,5.05-1.44.49-4.42-1.11-5.51-2.62-2-2.75,0-5.46,5.13-7.53,0-7.7-.09-15.5.09-23.3,0-1.62.81-4.38,1.75-4.62,3.06-.77,6.63-1.49,9.49-.59,3.07,1,2.9,5.61.12,7.58A22.43,22.43,0,0,1,1688.6,544.29Z" transform="translate(-50.09 -282.46)"/><path class="cls-9" d="M1711.76,480.33c-9.16,0-18.31-.07-27.46,0-2.71,0-5.43.91-8.11.75a7.37,7.37,0,0,1-5-2.26c-.83-1.1-.75-3.72,0-4.95a6.06,6.06,0,0,1,4.56-2.28c6.81.18,13.61,1.1,20.41,1.14,4.94,0,9.88-1.09,14.84-1.29a6.29,6.29,0,0,1,4.67,2,5.82,5.82,0,0,1,.38,5c-.61,1.39-2.56,2.19-3.92,3.25Z" transform="translate(-50.09 -282.46)"/><path class="cls-13" d="M1746.14,385.64c4.53,0,9.07.09,13.6-.05,2.25-.07,4.5-.92,6.71-.78,1.93.12,4.28.68,5.54,1.94.91.9,1,3.89.23,4.87a8.12,8.12,0,0,1-5.32,2.39c-6.64.32-13.31.12-20,.3-3.31.09-5.52-1.3-5.81-4.49s1.76-5,4.95-5.36Z" transform="translate(-50.09 -282.46)"/><path class="cls-10" d="M1646.67,397c-.1-3.2,2.41-5.16,5.65-5.08,7.19.19,14.4-.09,21.59.13,1.75.06,4.14.85,5,2.13a5.7,5.7,0,0,1-.08,5.28c-.89,1.25-3.29,1.89-5.06,1.95-7,.26-14.11,0-21.15.32C1649.51,401.83,1646.78,400.1,1646.67,397Z" transform="translate(-50.09 -282.46)"/><path class="cls-13" d="M1620.89,389.79c-7.2.44-14.39,1-21.6,1.19a6.87,6.87,0,0,1-4.78-2.62,4.71,4.71,0,0,1,.16-4.53,7.62,7.62,0,0,1,5-2.33c6.88-.27,13.78-.25,20.66-.07,1.65,0,4,.63,4.73,1.79a6.55,6.55,0,0,1,.41,5.38c-.56,1.34-2.66,2-4.08,3Z" transform="translate(-50.09 -282.46)"/><path class="cls-13" d="M1685.6,507c1.16-4.64,1.75-8.55,3.22-12.09.56-1.35,3.11-2.58,4.75-2.57a5.23,5.23,0,0,1,4,3,6.59,6.59,0,0,1-1.24,5.25c-3.16,3.78-3,8.13.33,11.55a6.65,6.65,0,0,1,1.64,5.2,5.2,5.2,0,0,1-3.72,3.28c-1.63.12-4.26-.95-4.91-2.27C1687.82,514.62,1686.82,510.57,1685.6,507Z" transform="translate(-50.09 -282.46)"/><path class="cls-9" d="M1665,409.45c-.21,4.22-.56,8.44-.58,12.66,0,2.23.91,4.48.79,6.69-.11,1.92-.58,4.42-1.86,5.5-1.1.92-4.06.86-5.32,0s-1.88-3.29-2-5.06c-.25-6.15,0-12.31-.23-18.46-.13-3.25.79-5.52,4.14-6S1665.16,406.19,1665,409.45Z" transform="translate(-50.09 -282.46)"/><path class="cls-11" d="M1552.41,461.76c3.58-.14,5.58,2.75,5,6.51-.4,2.45.1,5-.25,7.51-.27,1.93-.69,4.4-2,5.45a5.41,5.41,0,0,1-5.29-.06c-1.29-1.08-1.67-3.55-1.89-5.48-.28-2.46.32-5-.06-7.46C1547.32,464.73,1549.07,461.89,1552.41,461.76Z" transform="translate(-50.09 -282.46)"/><path class="cls-9" d="M1821.24,466.94c.28,3.19.65,6.37.83,9.57s-1.61,5.1-4.57,5.2c-3.17.11-5.09-1.77-5.09-5.17,0-3.24-.06-6.49,0-9.73s1.86-5.27,4.83-4.77c2,.34,3.77,2.41,5.65,3.71Z" transform="translate(-50.09 -282.46)"/><path class="cls-12" d="M1762.92,403.9c.5-.25,1.32-.84,1.45-.72,2.42,2.37,4.78,1.43,7.29.16.54-.27,1.53.37,2.32.59,1.11,2.16,3,4.31,3,6.46,0,1.29-3.82,4-4.58,3.6-4-2.16-10.56,3.8-12.36-3.58C1759.61,408.58,1761.89,406.09,1762.92,403.9Z" transform="translate(-50.09 -282.46)"/><path class="cls-10" d="M1648.43,386.79c-2.9.22-5.8.59-8.7.62-3.12,0-4.9-1.78-4.91-4.86s2-4.72,5-4.8c2.8-.08,5.6,0,8.4.1,3.08.06,5.39,1.64,5,4.66-.27,2-2.31,3.84-3.57,5.74Z" transform="translate(-50.09 -282.46)"/><path class="cls-11" d="M1585.28,419.46c-2,.21-4.09.79-6,.53-1.79-.24-4-1-5-2.28a5.19,5.19,0,0,1,0-4.93c1-1.31,3.2-2,5-2.31a16.91,16.91,0,0,1,6,0c1.67.29,4,.84,4.65,2a6.58,6.58,0,0,1,.06,5.41c-.63,1.32-2.76,1.91-4.23,2.82C1585.57,420.31,1585.42,419.89,1585.28,419.46Z" transform="translate(-50.09 -282.46)"/><path class="cls-10" d="M1762.52,540.4c-1.17.35-2.32,1.13-3.19.88-1.76-.5-3.84-1.18-4.89-2.51a4.72,4.72,0,0,1,0-4.55c1.08-1.3,3.16-2,4.94-2.41a13.79,13.79,0,0,1,5.54.1c1.93.39,4.25.87,5.45,2.18.87.95.87,3.95,0,4.89-1.19,1.3-3.52,1.67-5.44,2.13C1764.23,541.29,1763.27,540.64,1762.52,540.4Z" transform="translate(-50.09 -282.46)"/><path class="cls-13" d="M1615.94,487.08c-2.46.22-5,.79-7.38.54-1.61-.17-3.73-1.16-4.44-2.44a5.57,5.57,0,0,1,.27-5c.84-1.2,3-1.75,4.66-2a41.8,41.8,0,0,1,6.44-.16c3.28,0,5.69,1.63,5.33,4.82-.23,2-2.41,3.81-3.72,5.7Z" transform="translate(-50.09 -282.46)"/><path class="cls-10" d="M1729.32,386c-2.62.18-5.24.47-7.87.51-3.16.05-5-1.84-5-4.81s1.89-4.76,5-4.84c2.61-.06,5.23-.08,7.84,0,3.12.14,5.15,2.08,4.68,5-.31,1.94-2.35,3.6-3.61,5.38Z" transform="translate(-50.09 -282.46)"/><path class="cls-10" d="M1800,506.6c-.09.36,0,1.43-.51,1.77-1.39,1-3.59,2.81-4.41,2.36-3.9-2.14-9.57,3.27-12.16-2.83-.53-1.28-.28-3.72.62-4.56,1.23-1.17,3.38-1.53,5.2-1.85,1.65-.29,3.43.14,5.09-.12C1797.4,500.81,1800,502.78,1800,506.6Z" transform="translate(-50.09 -282.46)"/><path class="cls-10" d="M1604.12,536.92c-2.47.21-4.93.54-7.4.59-3.3.07-5.29-1.64-5.16-5s2.31-4.71,5.58-4.59c2.15.09,4.31.06,6.47,0,3.33-.11,5.68,1.54,5.33,4.72-.22,2-2.38,3.79-3.67,5.68C1604.89,537.85,1604.5,537.39,1604.12,536.92Z" transform="translate(-50.09 -282.46)"/><path class="cls-9" d="M1787.24,466.86c2.6-.2,5.19-.53,7.79-.56,3.09,0,4.88,1.66,4.91,4.79s-1.82,4.74-4.88,4.85c-2.63.09-5.27.13-7.9,0-3.09-.17-5.12-2.11-4.62-5,.33-1.93,2.37-3.58,3.64-5.35Z" transform="translate(-50.09 -282.46)"/><path class="cls-14" d="M241.91,400.26q0,29.64,0,59.28c0,7.9-1.92,9.82-9.7,9.86-4.91,0-9.81.11-14.72,0-5.75-.16-8.27-2.57-8.27-8.14q-.08-61.12,0-122.25c0-5.46,2.27-8,7.72-8.29a161.6,161.6,0,0,1,17.47,0c5.54.31,7.48,2.79,7.49,8.87C241.94,359.81,241.91,380,241.91,400.26Z" transform="translate(-50.09 -282.46)"/><path class="cls-15" d="M919.17,727.3c.35-6.87.34-13.79,1.15-20.62,1.63-13.78,14.48-23.35,26.92-20.51,6.4,1.46,10.31,5.82,13.11,11.28a49.1,49.1,0,0,1,5.11,30.92c-2.05,12.66-11.3,23.6-21.85,25.52-9.05,1.66-16.48-2-23.1-7.72-.82-.71-1-2.43-1.08-3.69-.12-5.05,0-10.11,0-15.16Z" transform="translate(-50.09 -282.46)"/><path class="cls-16" d="M464.55,444.65c0,9.58.42,18.13-.11,26.62-.57,9.05-12.85,17.8-21.71,16.11-9.82-1.87-14-15.71-7.43-24.63a9.46,9.46,0,0,1,2.51-2.64C446.69,454.9,455.62,449.79,464.55,444.65Z" transform="translate(-50.09 -282.46)"/><path class="cls-17" d="M1123,702.36c2.62-14.53,11.58-23.21,22.44-22.29,9.75.82,15.93,8.52,15.89,20.45Z" transform="translate(-50.09 -282.46)"/><path class="cls-18" d="M1656.82,657.89c0,12.55,0,25.1,0,37.65,0,5.7-1.43,7.1-7,7.23-14.64.33-14.64.33-14.64-14.3q0-34.22,0-68.42c0-6.53,1.29-7.82,7.7-7.92,13.92-.21,13.92-.21,13.92,13.62Z" transform="translate(-50.09 -282.46)"/><path class="cls-19" d="M1840.52,726.24l-3.38,4.53-1.33-1,3.61-4.34Z" transform="translate(-50.09 -282.46)"/><path class="cls-19" d="M1834.61,732.4l-1.74,1.6-.62-.58,1.5-1.85Z" transform="translate(-50.09 -282.46)"/></svg>